<?xml version="1.0" encoding="utf-8"?>
<!-- Generator: Adobe Illustrator 19.2.0, SVG Export Plug-In . SVG Version: 6.00 Build 0)  -->
<svg version="1.1" id="Layer_1" xmlns="http://www.w3.org/2000/svg" xmlns:xlink="http://www.w3.org/1999/xlink" x="0px" y="0px"
	 viewBox="0 0 740 440" style="enable-background:new 0 0 740 440;" xml:space="preserve">
<style type="text/css">
	.st0{fill:#FFFFFF;}
	.st1{fill:#2A2B2A;}
	.st2{fill:#023136;}
	.st3{fill:#EB2026;}
	.st4{fill:#2A2B2A;stroke:#231F20;stroke-width:0.5;stroke-miterlimit:10;}
	.st5{fill:#FCB616;}
	.st6{fill:none;stroke:#FCB616;}
	.st7{fill:none;stroke:#231F20;stroke-width:2;stroke-miterlimit:10;stroke-dasharray:5;}
	.st8{fill:#F6921E;}
	.st9{fill:#BE202E;}
	.st10{fill:none;stroke:#231F20;stroke-width:0.5;stroke-miterlimit:10;}
</style>
<ellipse cx="388.4" cy="216.6" rx="82.1" ry="82.6"/>
<g>
	<path class="st0" d="M324.1,173.6h21.9v32.6h19.2v-32.6h22.1v87.6h-22.1v-36.4h-19.2v36.4h-21.9V173.6z"/>
	<path class="st0" d="M399.2,211.7c0-7.4,0.9-13.5,2.7-18.6c1.8-5,4.4-9.1,7.6-12.1c3.2-3,7.1-5.2,11.5-6.5s9.3-2,14.6-2
		c5.6,0,11,0.6,16.3,1.7v17.1c-2.4-0.7-4.7-1.2-6.7-1.4c-2-0.2-4.2-0.3-6.7-0.3c-2.3,0-4.4,0.2-6.5,0.6c-2,0.4-3.8,1.3-5.4,2.7
		c-1.5,1.4-2.7,3.4-3.7,6c-0.9,2.6-1.4,6.1-1.4,10.6v15.9c0,4.5,0.5,8,1.4,10.6c1,2.6,2.2,4.6,3.8,6c1.6,1.4,3.4,2.3,5.4,2.7
		c2,0.4,4.2,0.6,6.5,0.6c2.7,0,5.2-0.1,7.5-0.4c2.3-0.3,4.3-0.6,6.1-1.1v16.8c-2.8,0.6-5.6,1-8.3,1.3s-5.5,0.4-8.3,0.4
		c-5.3,0-10.2-0.7-14.7-2c-4.5-1.3-8.4-3.5-11.6-6.5c-3.3-3-5.8-7-7.6-12.1c-1.8-5-2.7-11.2-2.7-18.6V211.7z"/>
</g>
<g>
	<path class="st1" d="M278.1,28.8c-0.7-4.4-4.5-7-8.8-7c-6.7,0-10.7,5.5-10.7,12.2c0,6.6,3.9,12.2,10.7,12.2c5,0,8.9-4.5,9.2-9.3
		h1.6c-0.6,6.2-5.1,10.7-10.8,10.7c-7.7,0-12.3-6-12.3-13.6c0-7.6,4.5-13.6,12.3-13.6c9.1,0,10.3,8,10.3,8.3H278.1z"/>
	<path class="st1" d="M326.6,21.1h2.3l10.1,24.1h0.1l10-24.1h2.3V47h-1.6V23.1h-0.1L339.8,47h-1.6l-9.9-23.9h-0.1V47h-1.6V21.1z"/>
	<path class="st1" d="M359.4,21.1h2.3l10.1,24.1h0.1l10-24.1h2.3V47h-1.6V23.1h-0.1L372.5,47H371L361,23.1H361V47h-1.6V21.1z"/>
	<path class="st1" d="M429.6,21.1h2l16.3,23.7h0.1V21.1h1.6V47h-1.9l-16.4-23.9h-0.1V47h-1.6V21.1z"/>
	<path class="st1" d="M471.6,28.5c-0.2-4.4-3.5-6.6-8.3-6.6c-2.9,0-7.1,1.2-7.1,5.5c0,4.2,4.4,4.9,8.8,5.8c4.4,0.9,8.8,2,8.8,7.2
		c0,5.4-5.1,7.3-9.1,7.3c-6,0-10.9-2.5-10.9-9.2h1.6c-0.3,5.7,4.2,7.8,9.3,7.8c3.1,0,7.5-1.4,7.5-5.9c0-4.4-4.4-5.1-8.8-6.1
		c-4.4-0.9-8.8-2-8.8-6.9c0-5,4.6-6.9,8.7-6.9c5.4,0,9.6,2.3,9.8,8H471.6z"/>
</g>
<g id="XMLID_4_">
	<g>
		<path class="st2" d="M304.6,49.7c-0.5,0-1,0-1.5,0c-10.7,0-19.3-6.7-19.3-14.9c0-8.2,8.6-14.9,19.3-14.9
			c10.7,0,19.3,6.7,19.3,14.9c0,5.6-4.1,10.6-10,13.1l0.2-0.1c-0.2,2.2,2.5,5.1,6,5.5C312.4,54.8,306.1,52.6,304.6,49.7z"/>
	</g>
	<g>
	</g>
</g>
<path class="st2" d="M397.8,47.8l0.2,0.1c-5.9-2.5-10-7.4-10-13c0-8.2,8.6-14.8,19.1-14.8s19.1,6.6,19.1,14.8s-8.6,14.8-19.1,14.8
	c-0.5,0-1,0-1.6-0.1l0,0c-1.5,2.9-7.8,5-13.9,3.7C395.3,52.8,398,50,397.8,47.8z"/>
<g>
	<path class="st2" d="M210.2,41.5h-11.6l-3,6.6h-4.4l13.4-29l12.9,29H213L210.2,41.5z M208.5,37.7l-4-9.3l-4.2,9.3H208.5z"/>
	<path class="st2" d="M229.5,20.9v17.6c0,2.1-0.1,3.7-0.4,4.7c-0.3,1.2-0.8,2.2-1.5,3c-1.4,1.6-3.2,2.4-5.4,2.4
		c-1.7,0-3.3-0.4-4.8-1.3l2-3.5c1,0.7,1.9,1,2.8,1c1.2,0,2.1-0.5,2.5-1.4c0.5-0.9,0.7-2.6,0.7-4.9V20.9H229.5z"/>
	<path class="st2" d="M251.6,25l-3.3,2c-0.6-1.1-1.2-1.8-1.8-2.1c-0.6-0.4-1.3-0.6-2.3-0.6c-1.1,0-2.1,0.3-2.8,1
		c-0.7,0.6-1.1,1.4-1.1,2.4c0,1.3,1,2.4,2.9,3.2l2.7,1.1c2.2,0.9,3.8,2,4.8,3.3c1,1.3,1.5,2.9,1.5,4.7c0,2.5-0.8,4.6-2.5,6.2
		c-1.7,1.6-3.8,2.5-6.2,2.5c-2.4,0-4.3-0.7-5.8-2.1c-1.5-1.4-2.5-3.4-2.8-5.9l4.1-0.9c0.2,1.6,0.5,2.7,1,3.3
		c0.8,1.2,2.1,1.8,3.7,1.8c1.3,0,2.3-0.4,3.2-1.3s1.3-1.9,1.3-3.3c0-0.5-0.1-1-0.2-1.5c-0.1-0.4-0.4-0.8-0.7-1.2s-0.7-0.7-1.2-1
		c-0.5-0.3-1.1-0.6-1.8-0.9l-2.6-1.1c-3.7-1.6-5.6-3.9-5.6-6.9c0-2,0.8-3.8,2.3-5.1c1.6-1.4,3.5-2.1,5.8-2.1
		C247.4,20.4,249.9,21.9,251.6,25z"/>
</g>
<g>
	<path class="st1" d="M46,250.2c-0.5-3.2-3.3-5.2-6.5-5.2c-5,0-8,4.1-8,9.1c0,5,2.9,9.1,8,9.1c3.7,0,6.7-3.4,6.9-7h1.2
		c-0.4,4.6-3.8,8-8.1,8c-5.8,0-9.2-4.5-9.2-10.1c0-5.7,3.4-10.1,9.2-10.1c6.8,0,7.7,6,7.7,6.2H46z"/>
	<path class="st1" d="M87.1,244.5h1.7l7.5,18h0.1l7.4-18h1.7v19.3h-1.2v-17.9h-0.1l-7.3,17.9h-1.2l-7.4-17.9h-0.1v17.9h-1.2V244.5z"
		/>
	<path class="st1" d="M114.8,244.5h1.7l7.5,18h0.1l7.4-18h1.7v19.3H132v-17.9h-0.1l-7.3,17.9h-1.2l-7.4-17.9H116v17.9h-1.2V244.5z"
		/>
	<path class="st1" d="M171,244.5h1.5l12.1,17.7h0.1v-17.7h1.2v19.3h-1.4l-12.2-17.9h-0.1v17.9H171V244.5z"/>
	<path class="st1" d="M205,250c-0.1-3.3-2.6-5-6.2-5c-2.2,0-5.3,0.9-5.3,4.1c0,3.1,3.3,3.6,6.5,4.3c3.3,0.7,6.6,1.5,6.6,5.4
		c0,4-3.8,5.4-6.8,5.4c-4.5,0-8.2-1.9-8.1-6.9h1.2c-0.2,4.2,3.1,5.8,6.9,5.8c2.3,0,5.6-1.1,5.6-4.4c0-3.3-3.3-3.8-6.6-4.5
		c-3.3-0.7-6.5-1.5-6.5-5.1c0-3.7,3.4-5.1,6.5-5.1c4,0,7.2,1.7,7.4,6H205z"/>
</g>
<g id="XMLID_1_">
	<g>
		<path class="st3" d="M68.8,264.6c-0.4,0-0.8,0-1.1,0c-8,0-14.4-5-14.4-11.1c0-6.1,6.5-11.1,14.4-11.1c8,0,14.4,5,14.4,11.1
			c0,4.2-3,7.9-7.5,9.8l0.2,0c-0.2,1.6,1.8,3.8,4.5,4.1C74.6,268.4,69.9,266.8,68.8,264.6z"/>
	</g>
	<g>
	</g>
</g>
<g id="XMLID_2_">
	<g>
		<path class="st3" d="M150.4,265.7c-1.1,2.2-5.8,3.8-10.4,2.7c2.6-0.3,4.6-2.5,4.5-4.1l0.2,0c-4.4-1.9-7.4-5.5-7.4-9.7
			c0-6.1,6.4-11,14.3-11c7.9,0,14.3,4.9,14.3,11c0,6.1-6.4,11-14.3,11C151.2,265.7,150.8,265.7,150.4,265.7z"/>
	</g>
	<g>
	</g>
</g>
<line class="st4" x1="30.6" y1="237" x2="205" y2="237"/>
<g>
	<path class="st3" d="M61.4,207.7v26.4H58v-4.5c-1.4,1.7-3,3-4.8,3.9s-3.7,1.3-5.8,1.3c-3.7,0-6.9-1.4-9.5-4.1c-2.6-2.7-4-6-4-9.9
		c0-3.8,1.3-7.1,4-9.8c2.7-2.7,5.9-4.1,9.6-4.1c2.2,0,4.1,0.5,5.9,1.4s3.3,2.3,4.6,4.2v-4.9H61.4z M47.8,210.3
		c-1.9,0-3.6,0.5-5.2,1.4c-1.6,0.9-2.9,2.2-3.8,3.9s-1.4,3.5-1.4,5.3c0,1.9,0.5,3.6,1.4,5.3c0.9,1.7,2.2,3,3.8,4s3.3,1.4,5.2,1.4
		c1.9,0,3.6-0.5,5.3-1.4c1.7-0.9,2.9-2.2,3.8-3.8c0.9-1.6,1.3-3.4,1.3-5.4c0-3.1-1-5.6-3-7.7C53.2,211.4,50.8,210.3,47.8,210.3z"/>
	<path class="st3" d="M82.2,210.6l-2.2,2.3c-1.8-1.8-3.6-2.6-5.3-2.6c-1.1,0-2,0.4-2.8,1.1s-1.2,1.6-1.2,2.6c0,0.9,0.3,1.7,1,2.5
		c0.6,0.8,2,1.7,4.1,2.8c2.5,1.3,4.2,2.6,5.1,3.8c0.9,1.2,1.3,2.6,1.3,4.2c0,2.2-0.8,4-2.3,5.5c-1.5,1.5-3.4,2.3-5.7,2.3
		c-1.5,0-3-0.3-4.3-1c-1.4-0.7-2.5-1.6-3.4-2.7l2.1-2.4c1.7,2,3.6,2.9,5.5,2.9c1.4,0,2.5-0.4,3.5-1.3c1-0.9,1.4-1.9,1.4-3.1
		c0-1-0.3-1.8-0.9-2.6c-0.6-0.7-2.1-1.7-4.3-2.8c-2.4-1.2-4-2.4-4.8-3.6c-0.9-1.2-1.3-2.6-1.3-4.1c0-2,0.7-3.7,2-5
		c1.4-1.3,3.1-2,5.2-2C77.3,207.1,79.7,208.2,82.2,210.6z"/>
	<path class="st3" d="M110.3,225.4l2.9,1.5c-0.9,1.8-2,3.3-3.2,4.5s-2.6,2-4.1,2.6c-1.5,0.6-3.3,0.9-5.2,0.9
		c-4.3,0-7.6-1.4-10.1-4.2s-3.6-6-3.6-9.6c0-3.4,1-6.3,3.1-9c2.6-3.3,6.1-5,10.4-5c4.5,0,8.1,1.7,10.7,5.1c1.9,2.4,2.9,5.4,2.9,9
		H90.4c0.1,3.1,1,5.6,2.9,7.6s4.2,2.9,7,2.9c1.3,0,2.6-0.2,3.9-0.7c1.3-0.5,2.3-1.1,3.2-1.9C108.3,228.4,109.3,227.1,110.3,225.4z
		 M110.3,218.3c-0.5-1.8-1.1-3.3-2-4.3c-0.9-1.1-2-2-3.4-2.6c-1.4-0.7-2.9-1-4.5-1c-2.6,0-4.8,0.8-6.7,2.5c-1.4,1.2-2.4,3-3.1,5.5
		H110.3z"/>
	<path class="st3" d="M142.5,225.4l2.9,1.5c-0.9,1.8-2,3.3-3.2,4.5s-2.6,2-4.1,2.6c-1.5,0.6-3.3,0.9-5.2,0.9
		c-4.3,0-7.6-1.4-10.1-4.2s-3.6-6-3.6-9.6c0-3.4,1-6.3,3.1-9c2.6-3.3,6.1-5,10.4-5c4.5,0,8.1,1.7,10.7,5.1c1.9,2.4,2.9,5.4,2.9,9
		h-23.7c0.1,3.1,1,5.6,2.9,7.6s4.2,2.9,7,2.9c1.3,0,2.6-0.2,3.9-0.7c1.3-0.5,2.3-1.1,3.2-1.9C140.5,228.4,141.5,227.1,142.5,225.4z
		 M142.5,218.3c-0.5-1.8-1.1-3.3-2-4.3c-0.9-1.1-2-2-3.4-2.6c-1.4-0.7-2.9-1-4.5-1c-2.6,0-4.8,0.8-6.7,2.5c-1.4,1.2-2.4,3-3.1,5.5
		H142.5z"/>
	<path class="st3" d="M174.7,225.4l2.9,1.5c-0.9,1.8-2,3.3-3.2,4.5s-2.6,2-4.1,2.6c-1.5,0.6-3.3,0.9-5.2,0.9
		c-4.3,0-7.6-1.4-10.1-4.2s-3.6-6-3.6-9.6c0-3.4,1-6.3,3.1-9c2.6-3.3,6.1-5,10.4-5c4.5,0,8.1,1.7,10.7,5.1c1.9,2.4,2.9,5.4,2.9,9
		h-23.7c0.1,3.1,1,5.6,2.9,7.6s4.2,2.9,7,2.9c1.3,0,2.6-0.2,3.9-0.7c1.3-0.5,2.3-1.1,3.2-1.9C172.7,228.4,173.6,227.1,174.7,225.4z
		 M174.7,218.3c-0.5-1.8-1.1-3.3-2-4.3c-0.9-1.1-2-2-3.4-2.6c-1.4-0.7-2.9-1-4.5-1c-2.6,0-4.8,0.8-6.7,2.5c-1.4,1.2-2.4,3-3.1,5.5
		H174.7z"/>
	<path class="st3" d="M197.9,210.6l-2.2,2.3c-1.8-1.8-3.6-2.6-5.3-2.6c-1.1,0-2,0.4-2.8,1.1s-1.2,1.6-1.2,2.6c0,0.9,0.3,1.7,1,2.5
		c0.6,0.8,2,1.7,4.1,2.8c2.5,1.3,4.2,2.6,5.1,3.8c0.9,1.2,1.3,2.6,1.3,4.2c0,2.2-0.8,4-2.3,5.5c-1.5,1.5-3.4,2.3-5.7,2.3
		c-1.5,0-3-0.3-4.3-1c-1.4-0.7-2.5-1.6-3.4-2.7l2.1-2.4c1.7,2,3.6,2.9,5.5,2.9c1.4,0,2.5-0.4,3.5-1.3c1-0.9,1.4-1.9,1.4-3.1
		c0-1-0.3-1.8-0.9-2.6c-0.6-0.7-2.1-1.7-4.3-2.8c-2.4-1.2-4-2.4-4.8-3.6c-0.9-1.2-1.3-2.6-1.3-4.1c0-2,0.7-3.7,2-5
		c1.4-1.3,3.1-2,5.2-2C193,207.1,195.5,208.2,197.9,210.6z"/>
</g>
<g>
	<path class="st1" d="M403.2,395.1c-0.6-4-4.1-6.4-8-6.4c-6.2,0-9.8,5.1-9.8,11.2c0,6.1,3.6,11.2,9.8,11.2c4.6,0,8.2-4.1,8.4-8.6
		h1.5c-0.5,5.7-4.7,9.8-9.9,9.8c-7.1,0-11.3-5.5-11.3-12.4c0-7,4.2-12.4,11.3-12.4c8.4,0,9.5,7.3,9.5,7.7H403.2z"/>
	<path class="st1" d="M447.7,388.1h2.1l9.2,22.1h0.1l9.1-22.1h2.1v23.8h-1.5v-22h-0.1l-9,22h-1.5l-9.1-22h-0.1v22h-1.5V388.1z"/>
	<path class="st1" d="M477.8,388.1h2.1l9.2,22.1h0.1l9.1-22.1h2.1v23.8H499v-22h-0.1l-9,22h-1.5l-9.1-22h-0.1v22h-1.5V388.1z"/>
	<path class="st1" d="M542.3,388.1h1.8l14.9,21.8h0.1v-21.8h1.5v23.8h-1.7l-15-22h-0.1v22h-1.5V388.1z"/>
	<path class="st1" d="M580.8,394.8c-0.2-4.1-3.2-6.1-7.6-6.1c-2.7,0-6.5,1.1-6.5,5.1c0,3.8,4,4.5,8,5.3c4,0.8,8.1,1.9,8.1,6.6
		c0,4.9-4.7,6.7-8.3,6.7c-5.5,0-10-2.3-10-8.4h1.5c-0.3,5.2,3.8,7.2,8.5,7.2c2.8,0,6.9-1.3,6.9-5.4c0-4-4-4.7-8.1-5.6
		c-4-0.8-8-1.8-8-6.3c0-4.6,4.2-6.3,7.9-6.3c4.9,0,8.8,2.1,9,7.4H580.8z"/>
</g>
<g id="XMLID_3_">
	<g>
		<path class="st5" d="M443.8,400.7c0,5.2-3.7,9.7-9.2,12l0.2-0.1c-0.2,2,2.3,4.7,5.5,5.1c-5.6,1.3-11.4-0.7-12.8-3.4l0,0
			c-0.5,0-0.9,0.1-1.4,0.1c-9.8,0-17.7-6.1-17.7-13.7s7.9-13.7,17.7-13.7C435.9,387,443.8,393.1,443.8,400.7z"/>
	</g>
	<g>
		<path class="st6" d="M434.8,412.6l-0.2,0.1c5.5-2.3,9.2-6.8,9.2-12c0-7.6-7.9-13.7-17.7-13.7c-9.8,0-17.7,6.1-17.7,13.7
			s7.9,13.7,17.7,13.7c0.5,0,1,0,1.4-0.1l0,0c1.4,2.7,7.2,4.7,12.8,3.4C437.1,417.3,434.6,414.6,434.8,412.6z"/>
	</g>
</g>
<path class="st5" d="M512.8,412.4l0.2,0c-5.5-2.3-9.1-6.8-9.1-11.9c0-7.5,7.9-13.6,17.6-13.6s17.6,6.1,17.6,13.6
	s-7.9,13.6-17.6,13.6c-0.5,0-1,0-1.4,0l0,0c-1.4,2.7-7.2,4.6-12.7,3.4C510.6,417.1,513,414.4,512.8,412.4z"/>
<g>
	<path class="st5" d="M354.3,412.3c0-0.2,0-0.3-0.1-0.5c-0.3-0.1-0.6-0.2-1-0.3c-0.1,0.3-0.2,0.6-0.3,0.9H354.3z"/>
	<path class="st5" d="M354.8,409.3c0.8,0.3,1.5,0.6,2,1c0-0.3,0-0.7-0.1-1c-0.5-0.1-1.1-0.2-1.6-0.3
		C355,409.1,354.9,409.2,354.8,409.3z"/>
	<path class="st5" d="M353.6,409.8c-0.1-0.1-0.1-0.3-0.2-0.4c-1.3-0.3-2.8-0.5-4.4-0.5c-1.3,0.1-2.6,0.4-3.8,0.7
		c0.7,0,1.5-0.1,2.3-0.1c2.1,0,4.1,0.3,5.8,0.7C353.5,410,353.5,409.9,353.6,409.8z"/>
	<path class="st5" d="M356.7,402.7c-0.3,0-0.6,0-0.8,0c-1.2,0-2.3,0.1-3.3,0.2c1.6,0.4,3,1,4.2,1.6V402.7z"/>
	<path class="st5" d="M352.5,406.5c0.2,0.3,0.4,0.6,0.5,0.9c1.2,0.1,2.3,0.2,3.3,0.3c0.1-0.1,0.2-0.1,0.3-0.2c0-0.1,0-0.2,0-0.3
		c-0.6-0.1-1.2-0.2-1.8-0.3C354.1,406.7,353.3,406.6,352.5,406.5z"/>
	<path class="st5" d="M353.4,411c0.2,0.1,0.4,0.1,0.6,0.2c0-0.2-0.1-0.3-0.1-0.5c-0.1,0-0.2-0.1-0.3-0.1
		C353.5,410.7,353.5,410.9,353.4,411z"/>
	<path class="st5" d="M354.5,408.9c-0.2,0-0.5-0.1-0.7-0.1c0,0.1,0,0.1,0.1,0.2c0.1,0,0.3,0.1,0.4,0.1
		C354.3,409.1,354.4,409,354.5,408.9z"/>
	<path class="st5" d="M355.6,408.6c0.4,0.1,0.7,0.1,1.1,0.2c0-0.2,0-0.5,0-0.8c0,0-0.1,0-0.1,0C356.2,408.3,355.9,408.4,355.6,408.6
		z"/>
	<path class="st5" d="M342.9,402.3c0.9-0.5,1.8-1,2.9-1.4c-0.2-0.1-0.5-0.3-0.7-0.4c-1.2,0.3-2.4,0.6-3.5,0.9
		c-2.6,0.8-5,1.9-7.2,3.1c0.4,0,0.8,0,1.2,0C337.6,403.4,340.1,402.6,342.9,402.3z"/>
	<path class="st5" d="M334.7,405c-0.1,0-0.3,0-0.4,0c0,0.1,0,0.1,0,0.2c0,0,0,0.1,0,0.1C334.4,405.2,334.5,405.1,334.7,405z"/>
	<path class="st5" d="M356.7,405.1c-0.2,0-0.4-0.1-0.6-0.1c-1.4,0.1-2.9,0.2-4.4,0.4c0.2,0.2,0.3,0.4,0.4,0.6
		c0.9,0.1,1.9,0.3,2.9,0.4c0.6,0.1,1.1,0.2,1.7,0.3c0-0.2,0-0.3,0-0.4V405.1z"/>
	<path class="st5" d="M344.3,400.1c-3.3,0-6.3,0.4-9.1,1c-0.4,0.8-0.7,1.8-0.9,2.8c2.2-1.2,4.5-2.2,7-3
		C342.3,400.6,343.3,400.4,344.3,400.1z"/>
	<path class="st5" d="M337,392.3l0.5,1.6c1.6-1,4.3-1.9,6.9-1.9c3.8,0,4.5,1.9,4.5,3.2v0.4c-4.4,0-8.1,0.7-10.6,2.3
		c2.1,0.3,4.2,0.8,6.1,1.6c0.1,0,0.2,0,0.3,0c0.2,0,0.4,0,0.6,0c0.7,0,1.3,0,2,0c1.8-0.3,3.6-0.5,5.3-0.5c1.4-0.2,2.8-0.3,4.2-0.4
		v-1.2c0-2.4-0.5-4.7-1.6-6.5c-1.8-0.6-3.8-0.8-6.1-0.8C345.4,390.1,341.3,390.8,337,392.3z"/>
	<path class="st5" d="M349,389.8c2.1,0,4.1,0.3,5.8,0.7c-1.6-2.3-4.5-3.8-9.1-3.8c-4.5,0-7.9,1.2-9.7,2.2l0.9,3.1
		C341.2,390.5,345.3,389.8,349,389.8z"/>
	<path class="st5" d="M337.6,398.3c-0.8,0.6-1.5,1.3-2.1,2.1c2.3-0.5,4.8-0.8,7.5-0.9C341.4,399,339.5,398.6,337.6,398.3z"/>
	<path class="st5" d="M356.7,402C356.6,402,356.6,401.9,356.7,402c-1,0-2,0.1-3,0.4c0.7,0,1.4-0.1,2.1-0.1c0.3,0,0.6,0,0.8,0V402z"
		/>
	<path class="st5" d="M340.5,404.7c1.2,0.1,2.4,0.2,3.6,0.3c1.4-0.9,3-1.5,4.7-1.9c0,0,0.1,0,0.1,0c-0.2-0.2-0.4-0.3-0.6-0.5
		c-0.7-0.1-1.5-0.1-2.2-0.1c-1,0-1.9,0.1-2.8,0.2C342.2,403.3,341.2,404,340.5,404.7z"/>
	<path class="st5" d="M346,402.1c0.6,0,1.1,0,1.6,0.1c-0.3-0.2-0.7-0.5-1-0.7c-0.1-0.1-0.3-0.2-0.4-0.3c-0.8,0.3-1.5,0.6-2.2,1
		C344.7,402.1,345.4,402.1,346,402.1z"/>
	<path class="st5" d="M346.1,411.2c-1.1,0.1-2.2,0.4-3.3,0.6c-0.1,0.3-0.3,0.7-0.4,1c1.9,0,3.7-0.5,5.1-1.4
		C347,411.4,346.5,411.3,346.1,411.2z"/>
	<path class="st5" d="M339.8,404.7c0.6-0.7,1.4-1.3,2.3-1.9c-2.1,0.3-4.1,0.9-5.7,1.7C337.5,404.5,338.6,404.6,339.8,404.7z"/>
	<path class="st5" d="M356.7,399.5c-0.9-0.1-1.8-0.1-2.8-0.1c-0.3,0-0.7,0-1.1,0c-0.7,0.1-1.4,0.2-2.1,0.4c2.1,0.2,4.1,0.6,6,1.1
		V399.5z"/>
	<path class="st5" d="M346.9,400.9c0,0,0.1,0,0.1,0.1c0.6,0.4,1.1,0.8,1.6,1.2c0.9,0.1,1.7,0.2,2.6,0.4c1.6-0.7,3.3-1.1,4.8-1.2
		c-2.2-0.5-4.6-0.9-7.1-1.1C348.2,400.5,347.5,400.7,346.9,400.9z"/>
	<path class="st5" d="M345.8,400.3c0.2,0.1,0.4,0.2,0.5,0.3c0.4-0.1,0.8-0.3,1.2-0.4c-0.3,0-0.7,0-1.1,0
		C346.3,400.2,346,400.2,345.8,400.3z"/>
	<path class="st5" d="M339.4,407.1c0.8-0.2,1.5-0.3,2.2-0.5c0.2-0.1,0.4-0.2,0.6-0.3c0.4-0.3,0.8-0.6,1.2-0.9
		c-1.1-0.1-2.2-0.2-3.3-0.2l-0.5,0.6c-0.4,0.5-0.7,1-1,1.5C338.7,407.3,339,407.2,339.4,407.1z"/>
	<path class="st5" d="M341.3,407.2c-0.5,0.3-1,0.6-1.5,0.9c0.3,0,0.6-0.1,0.9-0.1C340.9,407.6,341.1,407.4,341.3,407.2z"/>
	<path class="st5" d="M342.2,411.4c0-0.1,0.1-0.2,0.1-0.3c-0.3,0-0.6,0.1-0.9,0.1c-0.2,0.2-0.4,0.4-0.5,0.6c0.2-0.1,0.4-0.1,0.7-0.2
		C341.8,411.5,342,411.5,342.2,411.4z"/>
	<path class="st5" d="M342.6,410.7c0-0.1,0.1-0.2,0.1-0.3c-0.2,0.1-0.4,0.2-0.6,0.3l0,0C342.3,410.7,342.5,410.7,342.6,410.7z"/>
	<path class="st5" d="M339.5,411.1c0.4-0.1,0.9-0.2,1.4-0.3c0.3-0.2,0.5-0.3,0.8-0.5c-0.8,0.2-1.5,0.4-2.2,0.6
		C339.5,411,339.5,411.1,339.5,411.1z"/>
	<path class="st5" d="M342.9,409.7c0.1-0.1,0.2-0.1,0.4-0.2c0.4-0.6,0.8-1.1,1.2-1.7c-1.2,0.1-2.3,0.2-3.5,0.4
		c-0.5,0.7-0.9,1.4-1.2,2.2C340.7,410.1,341.7,409.9,342.9,409.7z"/>
	<path class="st5" d="M343.9,411c-0.3,0-0.6,0-0.9,0c0,0.1-0.1,0.1-0.1,0.2C343.3,411.2,343.6,411.1,343.9,411z"/>
	<path class="st5" d="M355.7,408c-0.8-0.1-1.6-0.2-2.5-0.2c0.1,0.2,0.2,0.4,0.3,0.6c0.5,0,0.9,0.1,1.4,0.2
		C355.2,408.3,355.5,408.2,355.7,408z"/>
	<path class="st5" d="M339.1,411.1c-0.3,0.1-0.6,0.3-0.9,0.4c0.3-0.1,0.6-0.2,0.9-0.3C339.1,411.2,339.1,411.2,339.1,411.1z"/>
	<path class="st5" d="M339,411.7c-0.2,0.1-0.4,0.1-0.6,0.2c0.2,0.1,0.4,0.2,0.5,0.3C338.9,412.1,338.9,411.9,339,411.7z"/>
	<path class="st5" d="M336.6,410.7c0.2,0.2,0.4,0.3,0.6,0.5c0-0.2-0.1-0.5-0.1-0.7c0-0.1,0-0.1,0-0.2c0-0.1,0-0.1,0-0.1
		C336.9,410.4,336.8,410.6,336.6,410.7z"/>
	<path class="st5" d="M339.1,405.5l0.3-0.4c-1.4-0.1-2.7-0.1-3.9-0.2c-0.4,0.2-0.8,0.5-1.2,0.8c0.1,0.9,0.3,1.7,0.6,2.5
		c1-0.3,1.9-0.5,2.9-0.8C338.1,406.8,338.5,406.2,339.1,405.5z"/>
	<path class="st5" d="M337.2,409.6c0-0.2,0.1-0.5,0.1-0.7c-0.6,0.1-1.2,0.3-1.8,0.4c0.3,0.4,0.6,0.8,0.9,1.1
		C336.6,410.2,336.9,409.9,337.2,409.6z"/>
	<path class="st5" d="M339,408.6c-0.5,0.3-0.9,0.7-1.3,1.1c0,0.2-0.1,0.5-0.1,0.7c0,0,0,0.1,0,0.1c0,0.3,0,0.6,0.1,0.8
		c0.5-0.3,1-0.5,1.6-0.7c0.2-0.8,0.6-1.6,1.1-2.3C339.9,408.4,339.4,408.5,339,408.6z"/>
	<path class="st5" d="M337.6,407.9c-0.9,0.2-1.7,0.5-2.5,0.7c0.1,0.1,0.1,0.2,0.2,0.3c0.7-0.2,1.4-0.3,2.2-0.5
		C337.5,408.3,337.5,408.1,337.6,407.9z"/>
	<path class="st5" d="M372.2,411c0.1-0.1,0.2-0.2,0.3-0.3c-0.2,0-0.3-0.1-0.5-0.1C372.1,410.8,372.1,410.9,372.2,411z"/>
	<path class="st5" d="M339.4,411.6c0,0.1,0,0.2,0,0.4c0.2-0.2,0.4-0.3,0.6-0.5C339.8,411.5,339.6,411.6,339.4,411.6z"/>
	<path class="st5" d="M350,412.3h2.4c0.1-0.3,0.1-0.7,0.3-1c-0.9-0.2-1.9-0.3-2.9-0.3C349.8,411,350,412.1,350,412.3z"/>
	<path class="st5" d="M331.3,412.4C331.3,412.4,331.3,412.4,331.3,412.4C331.3,412.4,331.3,412.4,331.3,412.4
		C331.3,412.4,331.3,412.4,331.3,412.4z"/>
	<path class="st5" d="M367.8,412c-0.1,0.3-0.2,0.6-0.3,0.8c0.2,0,0.5-0.1,0.7-0.1c0-0.1,0.1-0.1,0.1-0.2
		C368.2,412.3,368,412.1,367.8,412z"/>
	<path class="st5" d="M353.1,410.5c-1.1-0.3-2.3-0.5-3.5-0.6l0.1,0.5c1.2,0,2.3,0.2,3.2,0.4C353,410.7,353.1,410.6,353.1,410.5z"/>
	<path class="st5" d="M340.3,412c0.1-0.1,0.2-0.4,0.3-0.5c-0.2,0.2-0.6,0.5-0.8,0.6C340,412.1,340.2,412,340.3,412z"/>
	<path class="st5" d="M340.6,412.4c0,0.1,0,0.2-0.1,0.3c0.4,0.1,0.7,0.1,1.1,0.1c0.1-0.3,0.2-0.5,0.3-0.8c-0.1,0-0.2,0-0.3,0.1
		C341.4,412.2,341,412.3,340.6,412.4z"/>
	<path class="st5" d="M328.3,410.7c0.3,0.1,0.6,0.1,0.9,0.2c0.5-0.2,1-0.4,1.5-0.6c0-0.1,0-0.3,0-0.4
		C329.8,410.1,329,410.4,328.3,410.7z"/>
	<path class="st5" d="M333.2,408.7l-0.3-2c-0.8,0.8-1.4,1.7-1.7,2.6C331.8,409.1,332.5,408.9,333.2,408.7z"/>
	<path class="st5" d="M329.7,406.6c-0.4,0-0.9,0.1-1.4,0.1c-1.5,0-2.8-0.4-3.9-1.1c-1.9,1.5-3,3.3-3,5.1c0,0,0,0,0,0
		c0,0.1,0,0.3,0,0.4c1.2-0.5,2.5-0.8,3.9-0.8C326.5,409.1,328,407.8,329.7,406.6z"/>
	<path class="st5" d="M332.8,406.2l-0.1-0.3c-0.6,0.3-1.3,0.5-2.1,0.6c-1.8,1.2-3.4,2.5-4.7,3.9c0.6,0,1.1,0.1,1.6,0.1
		c1-0.4,2.1-0.7,3.2-1.1C331.1,408.3,331.8,407.2,332.8,406.2z"/>
	<path class="st5" d="M324,412.6c0.6,0.1,1.2,0.1,1.8,0.2c0.8-0.6,1.7-1.1,2.7-1.6c-0.3-0.1-0.7-0.2-1-0.2c-1.1,0.4-2.1,0.8-3.2,1.3
		C324.2,412.4,324.1,412.5,324,412.6z"/>
	<path class="st5" d="M326.7,410.9c-0.4,0-0.7-0.1-1.1-0.1h-0.1c-0.2,0.3-0.5,0.5-0.7,0.8C325.5,411.4,326.1,411.1,326.7,410.9z"/>
	<path class="st5" d="M321.5,400.1c0-0.1,0-0.2,0-0.4c-0.1-4.1,2.6-7,6.7-7c2,0,3.4,0.4,4.3,0.8l1.2-5.8c-1.6-0.6-3.9-1-5.9-1
		c-9.3,0-14.3,6-14.3,13.3c0,2.4,0.5,4.6,1.4,6.4C316.7,404.2,318.9,402.1,321.5,400.1z"/>
	<path class="st5" d="M329.7,411.1c0.3,0.1,0.6,0.3,0.9,0.4c0-0.2-0.1-0.5-0.1-0.8C330.3,410.9,330,411,329.7,411.1z"/>
	<path class="st5" d="M315.6,407.6c0.3,0.4,0.6,0.8,0.9,1.1c0.2-0.6,0.4-1.2,0.7-1.8C316.5,407.1,316,407.3,315.6,407.6z"/>
	<path class="st5" d="M324.9,410.8c-1.3,0.1-2.5,0.4-3.5,0.8c0,0.1,0.1,0.3,0.1,0.4c0.4,0.2,0.9,0.3,1.4,0.4c0.3-0.2,0.7-0.3,1-0.5
		C324.3,411.6,324.6,411.2,324.9,410.8z"/>
	<path class="st5" d="M329.2,411.4c-1,0.5-1.9,1-2.7,1.5c0.1,0,0.1,0,0.2,0c1.5,0,3-0.2,4.2-0.4c0-0.1-0.1-0.3-0.2-0.4
		C330.3,411.8,329.7,411.6,329.2,411.4z"/>
	<path class="st5" d="M320.7,410.8C320.7,410.8,320.7,410.8,320.7,410.8c0-2,1.1-3.8,2.9-5.4c-2.3,0.3-4.3,0.7-5.8,1.2
		c-0.5,0.9-0.8,1.7-0.9,2.5c1,1,2.2,1.9,3.6,2.5c0.1-0.1,0.2-0.1,0.3-0.2C320.8,411.2,320.7,411,320.7,410.8z"/>
	<path class="st5" d="M321.7,401.9c-1,0.8-2,1.7-2.7,2.7c-0.3,0.5-0.6,0.9-0.9,1.3c1.5-0.4,3.3-0.8,5.3-1
		C322.7,404.2,322.1,403.1,321.7,401.9z"/>
	<path class="st5" d="M333.2,409.1c-0.7,0.2-1.5,0.4-2.2,0.7c0,0.1-0.1,0.3-0.1,0.4c0.7-0.3,1.5-0.5,2.3-0.7L333.2,409.1z"/>
	<path class="st5" d="M331.8,412.3c0.7-0.2,1.4-0.4,1.8-0.6l-0.3-1.9c-0.8,0.3-1.6,0.5-2.4,0.8c0,0,0,0.1,0,0.1
		c0,0.4,0.1,0.7,0.1,1.1C331.3,411.9,331.6,412.1,331.8,412.3z"/>
	<path class="st5" d="M321.6,401.3c0-0.3-0.1-0.6-0.1-0.8c-2.5,2-4.7,4.1-6.4,6.2c0.1,0.1,0.2,0.3,0.2,0.4c0.6-0.4,1.3-0.7,2.1-0.9
		c0.3-0.6,0.7-1.2,1.2-1.9C319.5,403.2,320.5,402.2,321.6,401.3z"/>
	<path class="st5" d="M367.5,410.3C367.5,410.3,367.5,410.3,367.5,410.3c0-0.3,0-0.6-0.1-0.9c-1-0.3-2.1-0.5-3.1-0.7
		c0,0.2,0,0.4,0,0.5c0,0.1,0,0.2,0,0.3c1.2,0.5,2.3,1,3.1,1.6C367.5,410.9,367.5,410.6,367.5,410.3z"/>
	<path class="st5" d="M360.2,406.3c0.7-0.1,1.4-0.2,2.1-0.2h0.2c0.2,0,0.5,0,0.7,0c-0.2-0.5-0.4-0.9-0.7-1.3c-0.5,0-1,0-1.5-0.1
		C360.7,405.3,360.5,405.8,360.2,406.3z"/>
	<path class="st5" d="M361.4,403.7c-0.1,0.3-0.2,0.5-0.3,0.8c0.4,0,0.7,0,1.1,0c-0.1-0.1-0.2-0.2-0.3-0.4l0,0
		C361.7,404,361.6,403.8,361.4,403.7z"/>
	<path class="st5" d="M362.3,406.7c-0.7,0-1.3,0.1-1.9,0.1c0.2,0.2,0.4,0.4,0.5,0.7c0.9,0.2,1.8,0.4,2.7,0.6
		c-0.1-0.5-0.2-0.9-0.3-1.4c-0.3,0-0.6,0-0.9,0C362.4,406.6,362.3,406.7,362.3,406.7z"/>
	<path class="st5" d="M359.7,407.2c0.2,0,0.4,0.1,0.6,0.1c-0.1-0.2-0.2-0.3-0.4-0.5C359.9,407,359.8,407.1,359.7,407.2z"/>
	<path class="st5" d="M364,406.7c0.1,0.5,0.2,0.9,0.3,1.4c1,0.2,2,0.5,3,0.7c-0.2-0.6-0.5-1.1-0.9-1.7
		C365.6,407,364.8,406.8,364,406.7z"/>
	<path class="st5" d="M362.7,403.4c0.8,0.4,1.5,0.9,2.1,1.4c1.5,0.2,2.9,0.4,4,0.8c-0.2-0.4-0.4-0.7-0.7-1.1
		C366.2,404,364.4,403.6,362.7,403.4z"/>
	<path class="st5" d="M362.9,404.6c0.2,0,0.5,0,0.7,0c-0.4-0.2-0.8-0.5-1.2-0.7C362.6,404.1,362.8,404.3,362.9,404.6z"/>
	<path class="st5" d="M365.9,406.6c-0.5-0.5-1-1-1.7-1.5c-0.3,0-0.6-0.1-1-0.1c0.2,0.4,0.4,0.8,0.6,1.3
		C364.5,406.3,365.2,406.4,365.9,406.6z"/>
	<path class="st5" d="M360.5,410.3c-0.1-0.5-0.2-1-0.4-1.5c-0.3-0.1-0.7-0.1-1-0.2c0.3,0.5,0.6,1.1,1,1.5
		C360.2,410.1,360.4,410.2,360.5,410.3z"/>
	<path class="st5" d="M360.7,407.9c-0.2,0-0.4-0.1-0.7-0.1c0.1,0.2,0.2,0.3,0.3,0.5c0.2,0,0.4,0.1,0.6,0.1
		C360.9,408.3,360.8,408.1,360.7,407.9z"/>
	<path class="st5" d="M369.2,406.4c0-0.1-0.1-0.3-0.1-0.4c-1-0.3-2.3-0.6-3.6-0.8c0.6,0.5,1.1,1.1,1.5,1.7c0.9,0.3,1.8,0.7,2.5,1.2
		C369.4,407.5,369.3,406.9,369.2,406.4z"/>
	<path class="st5" d="M359.5,407.7c-0.1,0.1-0.2,0.3-0.2,0.4c0.2,0,0.4,0.1,0.7,0.1C359.8,408.1,359.6,407.9,359.5,407.7
		C359.5,407.7,359.5,407.7,359.5,407.7z"/>
	<path class="st5" d="M359.5,407C359.5,407,359.5,407,359.5,407C359.5,406.9,359.4,407,359.5,407C359.4,407,359.4,407,359.5,407z"/>
	<path class="st5" d="M359.1,407.6c-0.1,0-0.3,0-0.4-0.1c0.1,0.2,0.1,0.3,0.2,0.5C358.9,407.9,359,407.8,359.1,407.6z"/>
	<path class="st5" d="M358.8,407.1c0.1,0,0.3,0,0.3,0c0,0-0.1-0.1-0.1-0.1L358.8,407.1z"/>
	<path class="st5" d="M374.9,412.3c0.1-0.2,0.3-0.4,0.4-0.7c-0.5-0.1-0.9-0.3-1.4-0.4l0.2,1.1H374.9z"/>
	<path class="st5" d="M351.5,403.1c-0.4,0.2-0.9,0.4-1.3,0.6c0.2,0.2,0.4,0.4,0.6,0.6c0.6,0,1.3-0.1,1.9-0.1c1.1,0,2.1,0.1,3,0.2
		C354.5,403.9,353.1,403.4,351.5,403.1z"/>
	<path class="st5" d="M361.4,411.3c0.4,0.3,0.8,0.5,1.2,0.7C362.2,411.8,361.8,411.5,361.4,411.3
		C361.4,411.3,361.4,411.3,361.4,411.3z"/>
	<path class="st5" d="M368,411.5c0.2,0.2,0.4,0.4,0.6,0.6c0.3-0.7,0.6-1.5,0.7-2.2c-0.4-0.1-0.8-0.2-1.2-0.3c0,0.2,0.1,0.5,0.1,0.7
		l-0.3,0h0.3v0.1C368.1,410.7,368.1,411.1,368,411.5z"/>
	<path class="st5" d="M366.4,412.9c0.1,0,0.3,0,0.4,0c0.2-0.4,0.4-0.8,0.5-1.3c-0.8-0.6-1.8-1.1-3.1-1.6c-0.1,0.8-0.2,1.7-0.5,2.5
		c0,0,0,0,0,0C364.6,412.7,365.5,412.9,366.4,412.9z"/>
	<path class="st5" d="M376.3,409c0,0.1,0,0.1,0,0.2c0,0.7-0.1,1.4-0.4,2.1c1,0.3,2,0.7,3,1h2.1c-0.2-0.9-0.3-2.1-0.3-3.4
		c-1.3-0.7-2.9-1.4-5-2.2C376.1,407.4,376.3,408.2,376.3,409z"/>
	<path class="st5" d="M363.7,409.2c0-0.2,0-0.4-0.1-0.7c-0.8-0.2-1.7-0.4-2.5-0.5c0.1,0.2,0.2,0.3,0.2,0.5c0,0,0,0.1,0,0.1
		C362.2,408.8,363,409,363.7,409.2C363.7,409.3,363.7,409.2,363.7,409.2z"/>
	<path class="st5" d="M368.4,404.1c1.1,0.3,2.1,0.5,3.3,0.8c1.1,0.3,2.1,0.6,3.1,0.9c-2-3.1-6.7-5.6-12.7-6.4c0,0,0,0,0,0.1
		c0,0.2,0,0.4,0,0.6C364.9,401,367.1,402.4,368.4,404.1z"/>
	<path class="st5" d="M375.8,409.2c0-0.1,0-0.1,0-0.2c0-0.9-0.3-1.8-0.7-2.6c-1.1-0.4-2.2-0.7-3.5-1.1c-1-0.3-1.9-0.5-2.8-0.7
		c0.2,0.3,0.4,0.7,0.5,1.1c2.3,0.8,3.8,2,4.2,3.6c0.1,0.3,0.1,0.5,0.1,0.8c0,0,0,0,0,0l0.1,0.4c0.6,0.2,1.1,0.3,1.7,0.5
		C375.7,410.5,375.8,409.9,375.8,409.2z"/>
	<path class="st5" d="M361.2,409.9c0-0.3,0-0.6-0.1-0.9c-0.2,0-0.3-0.1-0.5-0.1c0.2,0.5,0.3,1.1,0.4,1.6c0.1,0,0.2,0.1,0.2,0.1
		C361.2,410.3,361.2,410.1,361.2,409.9z"/>
	<path class="st5" d="M360.2,399.7c0.5,0.1,1,0.2,1.5,0.4c0-0.2,0-0.4,0-0.5c0,0,0-0.1,0-0.1c-0.4-0.1-0.8-0.1-1.2-0.1
		C360.5,399.4,360.4,399.6,360.2,399.7z"/>
	<path class="st5" d="M367.7,403.9c-1.3-1.4-3.2-2.5-5.7-3.3c-0.1,0.7-0.2,1.4-0.4,2.1C363.5,403,365.5,403.4,367.7,403.9z"/>
	<path class="st5" d="M361.1,398.8c0.2,0,0.5,0,0.7,0.1c0-0.2,0-0.4-0.1-0.6C361.5,398.5,361.3,398.7,361.1,398.8z"/>
	<path class="st5" d="M361.1,411.1C361.1,411.1,361.1,411,361.1,411.1c0-0.1-0.1-0.1-0.1-0.1c0,0,0,0,0,0
		C361,411,361,411,361.1,411.1z"/>
	<path class="st5" d="M358.6,406.7c-0.1-0.1-0.1-0.1-0.2-0.2c0,0.1,0,0.1,0,0.2C358.5,406.7,358.6,406.7,358.6,406.7z"/>
	<path class="st5" d="M359.5,406.5c-0.3-0.3-0.7-0.5-1.1-0.7c0,0,0,0.1,0,0.1c0.3,0.2,0.5,0.4,0.7,0.7
		C359.2,406.5,359.3,406.5,359.5,406.5z"/>
	<path class="st5" d="M363.7,409.7c-0.7-0.2-1.4-0.5-2.2-0.7c0,0.3,0.1,0.5,0.1,0.8c0,0.3,0,0.6-0.1,0.9c0.7,0.4,1.3,0.8,1.8,1.3
		C363.5,411.3,363.6,410.5,363.7,409.7z"/>
	<path class="st5" d="M353.2,408.8c-0.2,0-0.4,0-0.5,0C352.8,408.8,353.1,408.8,353.2,408.8C353.2,408.8,353.2,408.8,353.2,408.8z"
		/>
	<path class="st5" d="M346.3,405.7c-0.3,0-0.6-0.1-0.8-0.1c-0.7,0.2-1.3,0.4-1.9,0.6C344.4,406,345.4,405.9,346.3,405.7z"/>
	<path class="st5" d="M343.5,405.8c0.3-0.1,0.6-0.2,0.8-0.3c-0.1,0-0.2,0-0.4,0C343.9,405.6,343.7,405.7,343.5,405.8z"/>
	<path class="st5" d="M340.3,407.3c-0.3,0.1-0.6,0.1-0.9,0.2c-0.4,0.1-0.8,0.2-1.2,0.3c-0.1,0.2-0.2,0.4-0.3,0.6
		c0.3-0.1,0.6-0.1,0.9-0.2C339.3,407.9,339.8,407.6,340.3,407.3z"/>
	<path class="st5" d="M349.6,407.7c-1.2,0-2.5,0-3.7,0.1c-0.2,0-0.4,0-0.6,0c-0.4,0.4-0.7,0.9-1,1.3c1.4-0.5,3.1-0.8,4.7-0.8
		c0,0,0,0,0.1,0c0.7-0.1,1.5-0.1,2.3-0.1c0.6,0,1.1,0,1.7,0.1c-0.1-0.2-0.2-0.4-0.3-0.6C351.7,407.7,350.6,407.7,349.6,407.7z"/>
	<path class="st5" d="M348.9,404.6c0.5-0.1,0.9-0.1,1.3-0.2c-0.1-0.1-0.3-0.3-0.4-0.4C349.5,404.2,349.2,404.4,348.9,404.6z"/>
	<path class="st5" d="M337.7,409.1c0.1-0.1,0.3-0.2,0.4-0.3c-0.1,0-0.2,0-0.3,0.1C337.8,408.9,337.8,409,337.7,409.1z"/>
	<path class="st5" d="M341.3,407.8c1.1-0.1,2.3-0.3,3.4-0.3c0.4-0.4,0.8-0.9,1.2-1.3c-1.2,0.2-2.5,0.4-3.7,0.7
		C341.9,407.1,341.6,407.5,341.3,407.8z"/>
	<path class="st5" d="M349.6,405.6c0.6,0.1,1.2,0.2,1.8,0.2c-0.1-0.1-0.2-0.3-0.3-0.4C350.6,405.5,350.1,405.5,349.6,405.6z"/>
	<path class="st5" d="M352.7,404.6c-0.5,0-1,0-1.6,0.1c0.1,0.1,0.2,0.2,0.3,0.3c1-0.1,2-0.2,3-0.3
		C353.8,404.7,353.3,404.6,352.7,404.6z"/>
	<path class="st5" d="M347.6,405.9c-0.2,0-0.3,0.1-0.5,0.1c-0.1,0.1-0.3,0.2-0.4,0.3c-0.4,0.3-0.7,0.7-1.1,1.1c0.1,0,0.2,0,0.2,0
		c1.3-0.1,2.5-0.1,3.7-0.1c1,0,1.9,0,2.8,0.1c-0.2-0.3-0.4-0.6-0.6-0.9C350.4,406.2,349,406,347.6,405.9z"/>
	<path class="st5" d="M347.8,405.4c0.1,0,0.3,0,0.4,0c0.9-0.1,1.8-0.3,2.6-0.4c-0.1-0.1-0.2-0.2-0.3-0.3c-0.8,0.1-1.5,0.2-2.3,0.3
		C348,405.2,347.9,405.3,347.8,405.4z"/>
	<path class="st5" d="M348.2,411c-0.2,0-0.5,0-0.7,0c0.2,0,0.3,0.1,0.5,0.1C348,411.1,348.1,411.1,348.2,411z"/>
	<path class="st5" d="M349.4,402.9c0.2,0,0.4-0.1,0.7-0.1c-0.3-0.1-0.6-0.1-1-0.1C349.2,402.7,349.3,402.8,349.4,402.9z"/>
	<path class="st5" d="M344.8,405.1c0.3,0,0.7,0.1,1,0.1c0.6-0.1,1.2-0.3,1.7-0.4c0.6-0.5,1.2-0.9,1.8-1.2c0,0-0.1-0.1-0.1-0.1
		c-0.1,0-0.3,0.1-0.4,0.1C347.4,403.8,346,404.4,344.8,405.1z"/>
	<path class="st5" d="M375.7,411.8c-0.1,0.2-0.2,0.4-0.3,0.5h1.9L375.7,411.8z"/>
	<path class="st5" d="M368.4,392c3.8,0,4.5,1.9,4.5,3.2v0.4c-4.6,0-8.3,0.8-10.9,2.5c0,0.3,0.1,0.6,0.1,0.8
		c6.4,0.9,11.5,3.6,13.4,7.1c2.2,0.8,3.9,1.5,5.3,2.2c0-0.7,0-1.4,0-2.2v-8.7c0-5.9-2.6-10.8-11-10.8c-4.5,0-7.9,1.2-9.7,2.2l1.4,5
		C363.1,392.9,365.8,392,368.4,392z"/>
	<path class="st5" d="M349.3,409.9c-0.6,0-1.2-0.1-1.8-0.1c-1.4,0-2.7,0.1-3.9,0.2c-0.1,0.2-0.2,0.4-0.3,0.5c0.2,0,0.5,0,0.7,0
		c0.6,0,1.2,0,1.7,0.1c1.1-0.1,2-0.2,3-0.2C349,410.3,349.1,410.1,349.3,409.9z"/>
	<path class="st5" d="M369.4,409.4c0-0.3,0.1-0.5,0.1-0.8c-0.6-0.4-1.4-0.8-2.2-1.1c0.3,0.5,0.5,1,0.7,1.5
		C368.4,409.2,368.9,409.3,369.4,409.4z"/>
	<path class="st5" d="M373.3,410c0-0.2,0-0.4-0.1-0.5c-0.3-1.4-1.6-2.5-3.7-3.2c0,0,0,0,0,0c0.2,0.7,0.3,1.4,0.3,2.1
		c0.7,0.5,1.3,1,1.7,1.7c0.5,0.1,0.9,0.3,1.3,0.4C373.1,410.2,373.2,410.1,373.3,410z"/>
	<path class="st5" d="M358.8,402.3c0,0,0,0.1,0,0.1c0.2,0,0.4,0,0.6,0C359.1,402.4,358.9,402.3,358.8,402.3z"/>
	<path class="st5" d="M371.8,411.3c-0.1-0.3-0.3-0.6-0.4-0.9c-0.5-0.2-1.1-0.3-1.7-0.4c-0.2,0.8-0.5,1.6-0.9,2.5c0,0,0,0.1,0,0.1
		C370,412.3,370.9,411.9,371.8,411.3z"/>
	<path class="st5" d="M369.9,408.9c0,0.2,0,0.4-0.1,0.6c0.3,0.1,0.7,0.2,1,0.3C370.5,409.5,370.2,409.2,369.9,408.9z"/>
	<path class="st5" d="M361.3,402.7c0.2-0.7,0.3-1.4,0.4-2.1c-0.6-0.2-1.2-0.3-1.8-0.5c-0.4,0.5-0.7,1.1-1,1.7c0.3,0.1,0.6,0.2,1,0.3
		C360.4,402.3,360.9,402.5,361.3,402.7z"/>
	<path class="st5" d="M356.4,411.6c-0.6-0.3-1.2-0.5-1.9-0.8c0,0.2,0.1,0.3,0.1,0.5c0.5,0.2,0.9,0.5,1.3,0.8
		C356.1,412,356.2,411.8,356.4,411.6z"/>
	<path class="st5" d="M355.2,412.3c-0.1-0.1-0.3-0.2-0.4-0.3c0,0.1,0,0.2,0,0.3H355.2z"/>
	<path class="st5" d="M354.4,409.6c-0.1,0.1-0.2,0.2-0.2,0.2c0.1,0.2,0.1,0.3,0.2,0.5c0.8,0.3,1.6,0.6,2.4,0.9
		c0.1-0.1,0.1-0.1,0.2-0.2c0-0.1,0-0.1,0-0.2c-0.4-0.4-1-0.7-1.6-1C355,409.8,354.7,409.7,354.4,409.6z"/>
	<path class="st5" d="M360.7,404.5c0.1-0.3,0.3-0.7,0.4-1c-0.2-0.2-0.4-0.3-0.6-0.4c-0.7-0.1-1.3-0.1-1.9-0.2
		c-0.1,0.5-0.2,1.1-0.2,1.6c0.4,0,0.8,0,1.2,0C359.9,404.5,360.3,404.5,360.7,404.5z"/>
	<path class="st5" d="M356.3,412.3h0.7c0-0.1,0-0.2-0.1-0.4c-0.1,0-0.2-0.1-0.2-0.1C356.6,412,356.4,412.1,356.3,412.3z"/>
	<path class="st5" d="M359.9,406.3c0.3-0.5,0.5-1,0.7-1.5c-0.3,0-0.7,0-1,0c-0.4,0-0.8,0-1.2,0c0,0.1,0,0.2,0,0.3c0,0.1,0,0.1,0,0.2
		C358.9,405.6,359.4,405.9,359.9,406.3z"/>
</g>
<line class="st7" x1="318.7" y1="62.4" x2="318.7" y2="151.1"/>
<line class="st7" x1="209" y1="225.6" x2="297" y2="225.3"/>
<line class="st7" x1="564.1" y1="186" x2="475.9" y2="186"/>
<line class="st7" x1="438.2" y1="300.4" x2="438.2" y2="379.2"/>
<g>
	<path d="M582.7,219.7c-0.4-2.5-2.6-4-5.1-4c-3.9,0-6.2,3.2-6.2,7.1c0,3.9,2.3,7.1,6.2,7.1c2.9,0,5.2-2.6,5.4-5.4h0.9
		c-0.3,3.6-3,6.2-6.3,6.2c-4.5,0-7.2-3.5-7.2-7.9c0-4.4,2.7-7.9,7.2-7.9c5.3,0,6,4.6,6,4.8H582.7z"/>
	<path d="M614.8,215.2h1.3l5.9,14h0l5.8-14h1.3v15h-0.9v-13.9h0l-5.7,13.9h-0.9l-5.8-13.9h0v13.9h-0.9V215.2z"/>
	<path d="M636.5,215.2h1.3l5.9,14h0l5.8-14h1.3v15H650v-13.9h0l-5.7,13.9h-0.9l-5.8-13.9h0v13.9h-0.9V215.2z"/>
	<path d="M680.5,215.2h1.2l9.5,13.8h0v-13.8h0.9v15H691l-9.6-13.9h0v13.9h-0.9V215.2z"/>
	<path d="M707.1,219.5c-0.1-2.6-2-3.9-4.8-3.9c-1.7,0-4.1,0.7-4.1,3.2c0,2.4,2.6,2.8,5.1,3.4c2.6,0.5,5.1,1.2,5.1,4.2
		c0,3.1-3,4.2-5.3,4.2c-3.5,0-6.4-1.5-6.3-5.3h0.9c-0.2,3.3,2.4,4.5,5.4,4.5c1.8,0,4.4-0.8,4.4-3.4c0-2.5-2.6-3-5.1-3.5
		c-2.5-0.5-5.1-1.1-5.1-4c0-2.9,2.7-4,5.1-4c3.1,0,5.6,1.3,5.8,4.7H707.1z"/>
</g>
<path class="st8" d="M605.1,230.3l-0.1,0c3.5-1.5,5.9-4.3,5.9-7.6c0-4.8-5-8.7-11.3-8.7c-6.2,0-11.3,3.9-11.3,8.7s5,8.7,11.3,8.7
	c0.3,0,0.6,0,0.9,0l0,0c0.9,1.7,4.6,3,8.2,2.2C606.5,233.3,605,231.6,605.1,230.3z"/>
<path class="st9" d="M660.3,230.2l0.1,0c-3.5-1.5-5.8-4.3-5.8-7.5c0-4.7,5-8.6,11.2-8.6s11.2,3.8,11.2,8.6c0,4.7-5,8.6-11.2,8.6
	c-0.3,0-0.6,0-0.9,0l0,0c-0.9,1.7-4.6,2.9-8.1,2.1C658.8,233.1,660.4,231.5,660.3,230.2z"/>
<line class="st10" x1="571.2" y1="206.8" x2="707.6" y2="206.8"/>
<g>
	<path d="M571.2,202v-6.7h5.1v-26.2h-5.1v-6.7H591l8.7,23.2l8.7-23.2h20.2v6.7h-5.1v26.2h5.1v6.7h-19.9v-6.7h4.8v-26.2h-0.9
		L600.3,202h-4.3l-12.4-32.9h-0.9v26.2h5.2v6.7H571.2z"/>
	<path d="M629.6,202v-6.7h5.7v-26.2h-5.7v-6.7h21.7v6.7h-5.8v26.2h11.7v-12.2h7.7V202H629.6z"/>
	<path d="M705.2,195.3v6.7h-19.5v-6.7h5.1l-1.9-6.8h-10.3l-2.1,6.8h5.3v6.7h-17.5v-6.7h4.9l7.7-26.2h-5.3v-6.7h25.8v6.7h-5.3
		l8.3,26.2H705.2z M687.3,182.7l-3.3-11.9l-3.6,11.9H687.3z"/>
</g>
</svg>
