<?xml version="1.0" encoding="utf-8"?>
<!-- Generator: Adobe Illustrator 19.2.0, SVG Export Plug-In . SVG Version: 6.00 Build 0)  -->
<svg version="1.1" id="Layer_1" xmlns="http://www.w3.org/2000/svg" xmlns:xlink="http://www.w3.org/1999/xlink" x="0px" y="0px"
	 viewBox="0 0 240 168" style="enable-background:new 0 0 240 168;" xml:space="preserve">
<style type="text/css">
	.st0{fill:none;}
	.st1{fill:#FFFFFF;}
	.st2{font-family:'Almaq-Refined';}
	.st3{font-size:43.8051px;}
	.st4{fill:#2A2B2A;}
	.st5{fill:#023136;}
	.st6{font-family:'Futura-Medium';}
	.st7{font-size:13.662px;}
	.st8{fill:#EB2026;}
	.st9{fill:#2A2B2A;stroke:#231F20;stroke-width:0.5;stroke-miterlimit:10;}
	.st10{font-family:'CenturyGothic';}
	.st11{font-size:16.0735px;}
	.st12{fill:#FCB616;}
	.st13{fill:none;stroke:#FCB616;}
	.st14{fill:none;stroke:#231F20;stroke-miterlimit:10;stroke-dasharray:5;}
	.st15{fill:#F6921E;}
	.st16{fill:#BE202E;}
	.st17{fill:none;stroke:#231F20;stroke-width:0.5;stroke-miterlimit:10;}
</style>
<circle cx="126.6" cy="84.1" r="27.5"/>
<rect x="102.8" y="69.8" class="st0" width="51.4" height="42.3"/>
<text transform="matrix(1 0 0 1 102.7686 98.9814)" class="st1 st2 st3">HC</text>
<g>
	<path class="st4" d="M95.3,11.8c-0.3-1.6-1.7-2.6-3.3-2.6c-2.6,0-4.1,2.1-4.1,4.6c0,2.5,1.5,4.6,4.1,4.6c1.9,0,3.4-1.7,3.5-3.5h0.6
		c-0.2,2.3-1.9,4-4.1,4c-2.9,0-4.7-2.3-4.7-5.1c0-2.9,1.7-5.1,4.7-5.1c3.5,0,3.9,3,3.9,3.2H95.3z"/>
	<path class="st4" d="M113.8,8.9h0.9l3.8,9.1h0l3.8-9.1h0.9v9.8h-0.6v-9h0l-3.7,9h-0.6l-3.8-9h0v9h-0.6V8.9z"/>
	<path class="st4" d="M126.2,8.9h0.9l3.8,9.1h0l3.8-9.1h0.9v9.8H135v-9h0l-3.7,9h-0.6l-3.8-9h0v9h-0.6V8.9z"/>
	<path class="st4" d="M152.9,8.9h0.8l6.2,9h0v-9h0.6v9.8h-0.7l-6.2-9h0v9h-0.6V8.9z"/>
	<path class="st4" d="M168.9,11.7c-0.1-1.7-1.3-2.5-3.1-2.5c-1.1,0-2.7,0.5-2.7,2.1c0,1.6,1.7,1.8,3.3,2.2c1.7,0.3,3.3,0.8,3.3,2.7
		c0,2-1.9,2.8-3.4,2.8c-2.3,0-4.2-0.9-4.1-3.5h0.6c-0.1,2.1,1.6,2.9,3.5,2.9c1.2,0,2.8-0.5,2.8-2.2c0-1.7-1.7-1.9-3.3-2.3
		c-1.7-0.3-3.3-0.7-3.3-2.6c0-1.9,1.7-2.6,3.3-2.6c2,0,3.6,0.9,3.7,3H168.9z"/>
</g>
<g id="XMLID_4_">
	<g>
		<path class="st5" d="M112.2,14.1c0,2.1-1.5,4-3.8,4.9l0.1,0c-0.1,0.8,0.9,1.9,2.3,2.1c-2.3,0.5-4.7-0.3-5.3-1.4l0,0
			c-0.2,0-0.4,0-0.6,0c-4,0-7.3-2.5-7.3-5.6s3.3-5.6,7.3-5.6C108.9,8.5,112.2,11,112.2,14.1z"/>
	</g>
	<g>
	</g>
</g>
<path class="st5" d="M140.8,19L140.8,19c-2.2-0.9-3.7-2.8-3.7-4.9c0-3.1,3.3-5.6,7.3-5.6s7.3,2.5,7.3,5.6s-3.3,5.6-7.3,5.6
	c-0.2,0-0.4,0-0.6,0l0,0c-0.6,1.1-3,1.9-5.3,1.4C139.9,20.9,140.9,19.8,140.8,19z"/>
<rect x="62.3" y="7.9" class="st0" width="46.6" height="30.2"/>
<text transform="matrix(1 0 0 1 62.2763 19.1267)" class="st5 st6 st7">AJS</text>
<g>
	<path class="st4" d="M10,104c-0.2-1-1.1-1.7-2.1-1.7c-1.6,0-2.6,1.3-2.6,2.9c0,1.6,1,2.9,2.6,2.9c1.2,0,2.2-1.1,2.2-2.2h0.4
		c-0.1,1.5-1.2,2.6-2.6,2.6c-1.9,0-3-1.4-3-3.3s1.1-3.3,3-3.3c2.2,0,2.5,1.9,2.5,2H10z"/>
	<path class="st4" d="M23.3,102.1h0.6l2.4,5.8h0l2.4-5.8h0.6v6.2h-0.4v-5.8h0l-2.4,5.8h-0.4l-2.4-5.8h0v5.8h-0.4V102.1z"/>
	<path class="st4" d="M32.3,102.1h0.6l2.4,5.8h0l2.4-5.8h0.6v6.2h-0.4v-5.8h0l-2.4,5.8h-0.4l-2.4-5.8h0v5.8h-0.4V102.1z"/>
	<path class="st4" d="M50.5,102.1H51l3.9,5.7h0v-5.7h0.4v6.2h-0.5l-4-5.8h0v5.8h-0.4V102.1z"/>
	<path class="st4" d="M61.6,103.9c0-1.1-0.8-1.6-2-1.6c-0.7,0-1.7,0.3-1.7,1.3c0,1,1.1,1.2,2.1,1.4c1.1,0.2,2.1,0.5,2.1,1.7
		c0,1.3-1.2,1.8-2.2,1.8c-1.5,0-2.6-0.6-2.6-2.2h0.4c-0.1,1.4,1,1.9,2.2,1.9c0.8,0,1.8-0.3,1.8-1.4c0-1.1-1.1-1.2-2.1-1.5
		c-1.1-0.2-2.1-0.5-2.1-1.7c0-1.2,1.1-1.7,2.1-1.7c1.3,0,2.3,0.6,2.4,1.9H61.6z"/>
</g>
<g id="XMLID_1_">
	<g>
		<path class="st8" d="M21.7,105.4c0,1.4-1,2.5-2.4,3.2l0.1,0c-0.1,0.5,0.6,1.2,1.5,1.3c-1.5,0.3-3-0.2-3.4-0.9l0,0
			c-0.1,0-0.3,0-0.4,0c-2.6,0-4.7-1.6-4.7-3.6c0-2,2.1-3.6,4.7-3.6C19.6,101.8,21.7,103.4,21.7,105.4z"/>
	</g>
	<g>
	</g>
</g>
<g id="XMLID_2_">
	<g>
		<path class="st8" d="M43.9,109c-0.4,0.7-1.9,1.2-3.4,0.9c0.9-0.1,1.5-0.8,1.4-1.3l0.1,0c-1.4-0.6-2.4-1.8-2.4-3.1
			c0-2,2.1-3.6,4.6-3.6c2.6,0,4.6,1.6,4.6,3.6c0,2-2.1,3.6-4.6,3.6C44.1,109,44,109,43.9,109z"/>
	</g>
	<g>
	</g>
</g>
<line class="st9" x1="4.9" y1="99.7" x2="61.6" y2="99.7"/>
<rect x="6.2" y="86" class="st0" width="69.8" height="29.6"/>
<text transform="matrix(1 0 0 1 6.2114 97.8105)" class="st8 st10 st11">aseees</text>
<g>
	<path class="st4" d="M127.9,151.9c-0.2-1.5-1.6-2.4-3.1-2.4c-2.4,0-3.7,1.9-3.7,4.2c0,2.3,1.4,4.2,3.7,4.2c1.7,0,3.1-1.6,3.2-3.2
		h0.6c-0.2,2.1-1.8,3.7-3.8,3.7c-2.7,0-4.3-2.1-4.3-4.7c0-2.6,1.6-4.7,4.3-4.7c3.2,0,3.6,2.8,3.6,2.9H127.9z"/>
	<path class="st4" d="M144.8,149.2h0.8l3.5,8.4h0l3.5-8.4h0.8v9h-0.6v-8.3h0l-3.4,8.3h-0.6l-3.5-8.3h0v8.3h-0.6V149.2z"/>
	<path class="st4" d="M156.2,149.2h0.8l3.5,8.4h0l3.5-8.4h0.8v9h-0.6v-8.3h0l-3.4,8.3h-0.6l-3.5-8.3h0v8.3h-0.6V149.2z"/>
	<path class="st4" d="M180.7,149.2h0.7l5.7,8.2h0v-8.2h0.6v9H187l-5.7-8.3h0v8.3h-0.6V149.2z"/>
	<path class="st4" d="M195.4,151.8c-0.1-1.5-1.2-2.3-2.9-2.3c-1,0-2.5,0.4-2.5,1.9c0,1.4,1.5,1.7,3.1,2c1.5,0.3,3.1,0.7,3.1,2.5
		c0,1.9-1.8,2.5-3.2,2.5c-2.1,0-3.8-0.9-3.8-3.2h0.6c-0.1,2,1.5,2.7,3.2,2.7c1.1,0,2.6-0.5,2.6-2c0-1.5-1.5-1.8-3.1-2.1
		c-1.5-0.3-3.1-0.7-3.1-2.4c0-1.7,1.6-2.4,3-2.4c1.9,0,3.3,0.8,3.4,2.8H195.4z"/>
</g>
<g id="XMLID_3_">
	<g>
		<path class="st12" d="M137.1,159.1c-0.2,0-0.4,0-0.5,0c-3.7,0-6.7-2.3-6.7-5.2c0-2.9,3-5.2,6.7-5.2c3.7,0,6.7,2.3,6.7,5.2
			c0,2-1.4,3.7-3.5,4.5l0.1,0c-0.1,0.8,0.9,1.8,2.1,1.9C139.9,160.9,137.7,160.1,137.1,159.1z"/>
	</g>
	<g>
		<line class="st13" x1="137.1" y1="159.1" x2="137.1" y2="159.1"/>
		<path class="st13" d="M139.9,158.5L139.9,158.5c2-0.9,3.4-2.6,3.4-4.5c0-2.9-3-5.2-6.7-5.2c-3.7,0-6.7,2.3-6.7,5.2
			c0,2.9,3,5.2,6.7,5.2c0.2,0,0.4,0,0.5,0c0.5,1,2.7,1.8,4.9,1.3C140.8,160.3,139.8,159.3,139.9,158.5z"/>
	</g>
</g>
<path class="st12" d="M169.5,158.4L169.5,158.4c-2-0.9-3.4-2.5-3.4-4.5c0-2.8,3-5.1,6.7-5.1s6.7,2.3,6.7,5.1s-3,5.1-6.7,5.1
	c-0.2,0-0.4,0-0.5,0l0,0c-0.5,1-2.7,1.7-4.8,1.3C168.7,160.2,169.6,159.2,169.5,158.4z"/>
<g>
	<path class="st12" d="M109.3,158.4c0-0.1,0-0.1,0-0.2c-0.1,0-0.2-0.1-0.4-0.1c0,0.1-0.1,0.2-0.1,0.3H109.3z"/>
	<path class="st12" d="M109.5,157.2c0.3,0.1,0.6,0.2,0.8,0.4c0-0.1,0-0.3,0-0.4c-0.2,0-0.4-0.1-0.6-0.1
		C109.6,157.2,109.5,157.2,109.5,157.2z"/>
	<path class="st12" d="M109.1,157.4c0-0.1,0-0.1-0.1-0.2c-0.5-0.1-1.1-0.2-1.7-0.2c-0.5,0-1,0.1-1.4,0.3c0.3,0,0.6,0,0.9,0
		c0.8,0,1.5,0.1,2.2,0.3C109,157.5,109,157.5,109.1,157.4z"/>
	<path class="st12" d="M110.2,154.8c-0.1,0-0.2,0-0.3,0c-0.4,0-0.9,0-1.3,0.1c0.6,0.2,1.1,0.4,1.6,0.6V154.8z"/>
	<path class="st12" d="M108.6,156.2c0.1,0.1,0.1,0.2,0.2,0.3c0.4,0,0.9,0.1,1.3,0.1c0,0,0.1,0,0.1-0.1c0,0,0-0.1,0-0.1
		c-0.2,0-0.5-0.1-0.7-0.1C109.2,156.3,108.9,156.2,108.6,156.2z"/>
	<path class="st12" d="M109,157.9c0.1,0,0.2,0.1,0.2,0.1c0-0.1,0-0.1,0-0.2c0,0-0.1,0-0.1,0C109,157.8,109,157.8,109,157.9z"/>
	<path class="st12" d="M109.4,157.1c-0.1,0-0.2,0-0.3,0c0,0,0,0,0,0.1C109.2,157.1,109.2,157.2,109.4,157.1
		C109.3,157.2,109.4,157.1,109.4,157.1z"/>
	<path class="st12" d="M109.8,157c0.1,0,0.3,0.1,0.4,0.1c0-0.1,0-0.2,0-0.3c0,0,0,0-0.1,0C110,156.9,109.9,156.9,109.8,157z"/>
	<path class="st12" d="M105,154.6c0.3-0.2,0.7-0.4,1.1-0.5c-0.1-0.1-0.2-0.1-0.3-0.1c-0.4,0.1-0.9,0.2-1.3,0.4
		c-1,0.3-1.9,0.7-2.7,1.2c0.2,0,0.3,0,0.5,0C102.9,155,103.9,154.7,105,154.6z"/>
	<path class="st12" d="M101.9,155.6c-0.1,0-0.1,0-0.2,0c0,0,0,0.1,0,0.1c0,0,0,0,0,0C101.8,155.7,101.8,155.6,101.9,155.6z"/>
	<path class="st12" d="M110.2,155.7c-0.1,0-0.1,0-0.2-0.1c-0.5,0-1.1,0.1-1.7,0.1c0.1,0.1,0.1,0.1,0.2,0.2c0.4,0.1,0.7,0.1,1.1,0.2
		c0.2,0,0.4,0.1,0.7,0.1c0-0.1,0-0.1,0-0.2V155.7z"/>
	<path class="st12" d="M105.5,153.8c-1.2,0-2.4,0.2-3.5,0.4c-0.2,0.3-0.3,0.7-0.3,1c0.8-0.4,1.7-0.8,2.7-1.1
		C104.8,154,105.1,153.9,105.5,153.8z"/>
	<path class="st12" d="M102.7,150.8l0.2,0.6c0.6-0.4,1.6-0.7,2.6-0.7c1.5,0,1.7,0.7,1.7,1.2v0.1c-1.7,0-3.1,0.3-4,0.9
		c0.8,0.1,1.6,0.3,2.3,0.6c0,0,0.1,0,0.1,0c0.1,0,0.1,0,0.2,0c0.3,0,0.5,0,0.8,0c0.7-0.1,1.4-0.2,2-0.2c0.5-0.1,1-0.1,1.6-0.1v-0.4
		c0-0.9-0.2-1.8-0.6-2.5c-0.7-0.2-1.5-0.3-2.3-0.3C105.9,150,104.4,150.3,102.7,150.8z"/>
	<path class="st12" d="M107.3,149.9c0.8,0,1.5,0.1,2.2,0.3c-0.6-0.9-1.7-1.4-3.5-1.4c-1.7,0-3,0.5-3.7,0.8l0.3,1.2
		C104.3,150.1,105.9,149.9,107.3,149.9z"/>
	<path class="st12" d="M103,153.1c-0.3,0.2-0.6,0.5-0.8,0.8c0.9-0.2,1.8-0.3,2.8-0.3C104.4,153.3,103.7,153.2,103,153.1z"/>
	<path class="st12" d="M110.2,154.5C110.2,154.5,110.2,154.5,110.2,154.5c-0.4,0-0.8,0.1-1.1,0.1c0.3,0,0.5,0,0.8,0
		c0.1,0,0.2,0,0.3,0V154.5z"/>
	<path class="st12" d="M104.1,155.5c0.4,0,0.9,0.1,1.4,0.1c0.5-0.3,1.1-0.6,1.8-0.7c0,0,0,0,0,0c-0.1-0.1-0.1-0.1-0.2-0.2
		c-0.3,0-0.6,0-0.8,0c-0.4,0-0.7,0-1.1,0.1C104.7,155,104.4,155.2,104.1,155.5z"/>
	<path class="st12" d="M106.2,154.5c0.2,0,0.4,0,0.6,0c-0.1-0.1-0.2-0.2-0.4-0.3c-0.1,0-0.1-0.1-0.2-0.1c-0.3,0.1-0.6,0.2-0.8,0.4
		C105.7,154.5,105.9,154.5,106.2,154.5z"/>
	<path class="st12" d="M106.2,158c-0.4,0.1-0.8,0.1-1.3,0.2c-0.1,0.1-0.1,0.3-0.1,0.4c0.7,0,1.4-0.2,1.9-0.5
		C106.5,158,106.4,158,106.2,158z"/>
	<path class="st12" d="M103.8,155.5c0.2-0.3,0.5-0.5,0.9-0.7c-0.8,0.1-1.6,0.3-2.2,0.6C102.9,155.4,103.4,155.5,103.8,155.5z"/>
	<path class="st12" d="M110.2,153.6c-0.3,0-0.7,0-1.1,0c-0.1,0-0.3,0-0.4,0c-0.3,0-0.5,0.1-0.8,0.1c0.8,0.1,1.6,0.2,2.3,0.4V153.6z"
		/>
	<path class="st12" d="M106.5,154.1C106.5,154.1,106.5,154.1,106.5,154.1c0.3,0.2,0.5,0.3,0.7,0.5c0.3,0,0.7,0.1,1,0.1
		c0.6-0.3,1.2-0.4,1.8-0.5c-0.8-0.2-1.7-0.3-2.7-0.4C107,153.9,106.7,154,106.5,154.1z"/>
	<path class="st12" d="M106.1,153.8c0.1,0,0.1,0.1,0.2,0.1c0.1-0.1,0.3-0.1,0.5-0.2c-0.1,0-0.3,0-0.4,0
		C106.3,153.8,106.2,153.8,106.1,153.8z"/>
	<path class="st12" d="M103.6,156.4c0.3-0.1,0.6-0.1,0.9-0.2c0.1,0,0.1-0.1,0.2-0.1c0.1-0.1,0.3-0.2,0.4-0.3c-0.4,0-0.9-0.1-1.3-0.1
		l-0.2,0.2c-0.2,0.2-0.3,0.4-0.4,0.6C103.4,156.5,103.5,156.4,103.6,156.4z"/>
	<path class="st12" d="M104.4,156.4c-0.2,0.1-0.4,0.2-0.6,0.3c0.1,0,0.2,0,0.3,0C104.2,156.6,104.3,156.5,104.4,156.4z"/>
	<path class="st12" d="M104.7,158.1c0,0,0-0.1,0.1-0.1c-0.1,0-0.2,0-0.4,0c-0.1,0.1-0.1,0.1-0.2,0.2c0.1,0,0.2-0.1,0.3-0.1
		C104.6,158.1,104.6,158.1,104.7,158.1z"/>
	<path class="st12" d="M104.9,157.8c0,0,0-0.1,0.1-0.1c-0.1,0-0.2,0.1-0.2,0.1l0,0C104.7,157.8,104.8,157.8,104.9,157.8z"/>
	<path class="st12" d="M103.7,157.9c0.2,0,0.3-0.1,0.5-0.1c0.1-0.1,0.2-0.1,0.3-0.2C104.2,157.7,104,157.8,103.7,157.9
		C103.7,157.9,103.7,157.9,103.7,157.9z"/>
	<path class="st12" d="M105,157.4c0,0,0.1,0,0.1-0.1c0.1-0.2,0.3-0.4,0.5-0.6c-0.5,0-0.9,0.1-1.3,0.1c-0.2,0.3-0.4,0.5-0.5,0.8
		C104.1,157.6,104.5,157.5,105,157.4z"/>
	<path class="st12" d="M105.4,157.9c-0.1,0-0.2,0-0.3,0c0,0,0,0,0,0.1C105.1,158,105.3,157.9,105.4,157.9z"/>
	<path class="st12" d="M109.9,156.8c-0.3,0-0.6-0.1-0.9-0.1c0,0.1,0.1,0.1,0.1,0.2c0.2,0,0.4,0,0.5,0.1
		C109.7,156.9,109.8,156.8,109.9,156.8z"/>
	<path class="st12" d="M103.5,157.9c-0.1,0-0.2,0.1-0.3,0.2C103.3,158.1,103.4,158,103.5,157.9C103.5,158,103.5,158,103.5,157.9z"/>
	<path class="st12" d="M103.5,158.2c-0.1,0-0.1,0.1-0.2,0.1c0.1,0,0.1,0.1,0.2,0.1C103.5,158.3,103.5,158.2,103.5,158.2z"/>
	<path class="st12" d="M102.6,157.8c0.1,0.1,0.1,0.1,0.2,0.2c0-0.1,0-0.2,0-0.3c0,0,0,0,0-0.1c0,0,0,0,0-0.1
		C102.7,157.7,102.7,157.7,102.6,157.8z"/>
	<path class="st12" d="M103.5,155.8l0.1-0.1c-0.5,0-1-0.1-1.5-0.1c-0.2,0.1-0.3,0.2-0.4,0.3c0,0.3,0.1,0.7,0.2,1
		c0.4-0.1,0.7-0.2,1.1-0.3C103.2,156.3,103.3,156.1,103.5,155.8z"/>
	<path class="st12" d="M102.8,157.4c0-0.1,0-0.2,0-0.3c-0.2,0-0.5,0.1-0.7,0.2c0.1,0.2,0.2,0.3,0.3,0.4
		C102.6,157.6,102.7,157.5,102.8,157.4z"/>
	<path class="st12" d="M103.5,157c-0.2,0.1-0.4,0.3-0.5,0.4c0,0.1,0,0.2,0,0.3c0,0,0,0,0,0.1c0,0.1,0,0.2,0,0.3
		c0.2-0.1,0.4-0.2,0.6-0.3c0.1-0.3,0.2-0.6,0.4-0.9C103.8,156.9,103.7,156.9,103.5,157z"/>
	<path class="st12" d="M103,156.7c-0.3,0.1-0.6,0.2-1,0.3c0,0,0,0.1,0.1,0.1c0.3-0.1,0.5-0.1,0.8-0.2
		C102.9,156.9,102.9,156.8,103,156.7z"/>
	<path class="st12" d="M116.1,157.9c0,0,0.1-0.1,0.1-0.1c-0.1,0-0.1,0-0.2-0.1C116.1,157.8,116.1,157.9,116.1,157.9z"/>
	<path class="st12" d="M103.7,158.1c0,0,0,0.1,0,0.1c0.1-0.1,0.1-0.1,0.2-0.2C103.8,158.1,103.7,158.1,103.7,158.1z"/>
	<path class="st12" d="M107.7,158.4h0.9c0-0.1,0.1-0.2,0.1-0.4c-0.3-0.1-0.7-0.1-1.1-0.1C107.6,157.9,107.7,158.3,107.7,158.4z"/>
	<path class="st12" d="M100.6,158.4C100.6,158.4,100.6,158.4,100.6,158.4C100.6,158.4,100.6,158.4,100.6,158.4
		C100.6,158.4,100.6,158.4,100.6,158.4z"/>
	<path class="st12" d="M114.5,158.3c0,0.1-0.1,0.2-0.1,0.3c0.1,0,0.2,0,0.3,0c0,0,0-0.1,0-0.1C114.6,158.4,114.5,158.3,114.5,158.3z
		"/>
	<path class="st12" d="M108.9,157.7c-0.4-0.1-0.9-0.2-1.3-0.2l0,0.2c0.4,0,0.9,0.1,1.2,0.1C108.8,157.8,108.8,157.7,108.9,157.7z"/>
	<path class="st12" d="M104,158.3c0,0,0.1-0.1,0.1-0.2c-0.1,0.1-0.2,0.2-0.3,0.2C103.9,158.3,104,158.3,104,158.3z"/>
	<path class="st12" d="M104.1,158.4c0,0,0,0.1,0,0.1c0.1,0,0.3,0,0.4,0c0-0.1,0.1-0.2,0.1-0.3c0,0-0.1,0-0.1,0
		C104.4,158.3,104.3,158.4,104.1,158.4z"/>
	<path class="st12" d="M99.4,157.8c0.1,0,0.2,0.1,0.3,0.1c0.2-0.1,0.4-0.2,0.6-0.2c0-0.1,0-0.1,0-0.2
		C100,157.6,99.7,157.7,99.4,157.8z"/>
	<path class="st12" d="M101.3,157l-0.1-0.8c-0.3,0.3-0.5,0.6-0.6,1C100.8,157.2,101,157.1,101.3,157z"/>
	<path class="st12" d="M100,156.2c-0.2,0-0.3,0-0.5,0c-0.6,0-1.1-0.1-1.5-0.4c-0.7,0.6-1.2,1.2-1.1,1.9c0,0,0,0,0,0
		c0,0.1,0,0.1,0,0.2c0.4-0.2,0.9-0.3,1.5-0.3C98.8,157.2,99.3,156.7,100,156.2z"/>
	<path class="st12" d="M101.1,156.1l0-0.1c-0.2,0.1-0.5,0.2-0.8,0.2c-0.7,0.5-1.3,1-1.8,1.5c0.2,0,0.4,0,0.6,0.1
		c0.4-0.1,0.8-0.3,1.2-0.4C100.5,156.9,100.8,156.4,101.1,156.1z"/>
	<path class="st12" d="M97.8,158.5c0.2,0,0.5,0.1,0.7,0.1c0.3-0.2,0.6-0.4,1-0.6c-0.1,0-0.3-0.1-0.4-0.1c-0.4,0.2-0.8,0.3-1.2,0.5
		C97.9,158.4,97.8,158.5,97.8,158.5z"/>
	<path class="st12" d="M98.8,157.8c-0.1,0-0.3,0-0.4,0h0c-0.1,0.1-0.2,0.2-0.3,0.3C98.4,158,98.6,157.9,98.8,157.8z"/>
	<path class="st12" d="M96.8,153.8c0,0,0-0.1,0-0.1c0-1.5,1-2.7,2.5-2.7c0.8,0,1.3,0.1,1.6,0.3l0.5-2.2c-0.6-0.2-1.5-0.4-2.2-0.4
		c-3.5,0-5.4,2.3-5.4,5c0,0.9,0.2,1.7,0.5,2.4C95,155.3,95.9,154.5,96.8,153.8z"/>
	<path class="st12" d="M100,157.9c0.1,0,0.2,0.1,0.3,0.2c0-0.1,0-0.2,0-0.3C100.2,157.8,100.1,157.9,100,157.9z"/>
	<path class="st12" d="M94.6,156.6c0.1,0.2,0.2,0.3,0.3,0.4c0.1-0.2,0.1-0.4,0.2-0.7C95,156.4,94.8,156.5,94.6,156.6z"/>
	<path class="st12" d="M98.2,157.8c-0.5,0-0.9,0.1-1.3,0.3c0,0.1,0,0.1,0,0.2c0.2,0.1,0.3,0.1,0.5,0.1c0.1-0.1,0.3-0.1,0.4-0.2
		C97.9,158.1,98,158,98.2,157.8z"/>
	<path class="st12" d="M99.8,158c-0.4,0.2-0.7,0.4-1,0.6c0,0,0,0,0.1,0c0.6,0,1.1-0.1,1.6-0.1c0-0.1,0-0.1-0.1-0.2
		C100.2,158.2,100,158.1,99.8,158z"/>
	<path class="st12" d="M96.6,157.8C96.6,157.8,96.6,157.8,96.6,157.8c0-0.8,0.4-1.4,1.1-2c-0.9,0.1-1.6,0.3-2.2,0.5
		c-0.2,0.3-0.3,0.7-0.4,0.9c0.4,0.4,0.8,0.7,1.4,0.9c0,0,0.1,0,0.1-0.1C96.6,158,96.6,157.9,96.6,157.8z"/>
	<path class="st12" d="M96.9,154.4c-0.4,0.3-0.7,0.6-1,1c-0.1,0.2-0.2,0.3-0.3,0.5c0.6-0.2,1.2-0.3,2-0.4
		C97.3,155.3,97.1,154.9,96.9,154.4z"/>
	<path class="st12" d="M101.3,157.2c-0.3,0.1-0.6,0.2-0.8,0.2c0,0.1,0,0.1,0,0.2c0.3-0.1,0.6-0.2,0.9-0.3L101.3,157.2z"/>
	<path class="st12" d="M100.8,158.4c0.3-0.1,0.5-0.1,0.7-0.2l-0.1-0.7c-0.3,0.1-0.6,0.2-0.9,0.3c0,0,0,0,0,0c0,0.1,0,0.3,0.1,0.4
		C100.6,158.2,100.7,158.3,100.8,158.4z"/>
	<path class="st12" d="M96.9,154.2c0-0.1,0-0.2,0-0.3c-1,0.7-1.8,1.5-2.4,2.3c0,0.1,0.1,0.1,0.1,0.2c0.2-0.1,0.5-0.3,0.8-0.4
		c0.1-0.2,0.3-0.5,0.4-0.7C96.1,154.9,96.5,154.6,96.9,154.2z"/>
	<path class="st12" d="M114.3,157.6C114.3,157.6,114.3,157.6,114.3,157.6c0-0.1,0-0.2,0-0.3c-0.4-0.1-0.8-0.2-1.2-0.3
		c0,0.1,0,0.1,0,0.2c0,0,0,0.1,0,0.1c0.5,0.2,0.9,0.4,1.2,0.6C114.3,157.8,114.3,157.7,114.3,157.6z"/>
	<path class="st12" d="M111.6,156.1c0.3,0,0.5-0.1,0.8-0.1h0.1c0.1,0,0.2,0,0.3,0c-0.1-0.2-0.2-0.3-0.3-0.5c-0.2,0-0.4,0-0.6,0
		C111.8,155.7,111.7,155.9,111.6,156.1z"/>
	<path class="st12" d="M112,155.1c0,0.1-0.1,0.2-0.1,0.3c0.1,0,0.3,0,0.4,0c0,0-0.1-0.1-0.1-0.1l0,0
		C112.1,155.2,112.1,155.2,112,155.1z"/>
	<path class="st12" d="M112.3,156.2c-0.3,0-0.5,0-0.7,0.1c0.1,0.1,0.1,0.2,0.2,0.3c0.3,0.1,0.7,0.1,1,0.2c0-0.2-0.1-0.4-0.1-0.5
		C112.6,156.2,112.5,156.2,112.3,156.2C112.4,156.2,112.4,156.2,112.3,156.2z"/>
	<path class="st12" d="M111.4,156.5c0.1,0,0.2,0,0.2,0c0-0.1-0.1-0.1-0.2-0.2C111.4,156.4,111.4,156.4,111.4,156.5z"/>
	<path class="st12" d="M113,156.3c0.1,0.2,0.1,0.4,0.1,0.5c0.4,0.1,0.8,0.2,1.1,0.3c-0.1-0.2-0.2-0.4-0.3-0.6
		C113.6,156.4,113.3,156.3,113,156.3z"/>
	<path class="st12" d="M112.5,155c0.3,0.2,0.6,0.3,0.8,0.5c0.6,0.1,1.1,0.2,1.5,0.3c-0.1-0.1-0.2-0.3-0.2-0.4
		C113.8,155.3,113.1,155.1,112.5,155z"/>
	<path class="st12" d="M112.6,155.5c0.1,0,0.2,0,0.3,0c-0.1-0.1-0.3-0.2-0.4-0.3C112.5,155.3,112.5,155.4,112.6,155.5z"/>
	<path class="st12" d="M113.7,156.2c-0.2-0.2-0.4-0.4-0.6-0.6c-0.1,0-0.2,0-0.4,0c0.1,0.2,0.2,0.3,0.2,0.5
		C113.2,156.1,113.5,156.2,113.7,156.2z"/>
	<path class="st12" d="M111.7,157.6c0-0.2-0.1-0.4-0.2-0.6c-0.1,0-0.3-0.1-0.4-0.1c0.1,0.2,0.2,0.4,0.4,0.6
		C111.6,157.6,111.6,157.6,111.7,157.6z"/>
	<path class="st12" d="M111.8,156.7c-0.1,0-0.2,0-0.3,0c0,0.1,0.1,0.1,0.1,0.2c0.1,0,0.2,0,0.2,0.1
		C111.8,156.9,111.8,156.8,111.8,156.7z"/>
	<path class="st12" d="M115,156.1c0,0,0-0.1-0.1-0.1c-0.4-0.1-0.9-0.2-1.4-0.3c0.2,0.2,0.4,0.4,0.6,0.6c0.4,0.1,0.7,0.3,1,0.4
		C115.1,156.5,115,156.3,115,156.1z"/>
	<path class="st12" d="M111.3,156.6c0,0.1-0.1,0.1-0.1,0.2c0.1,0,0.2,0,0.2,0C111.4,156.8,111.3,156.7,111.3,156.6
		C111.3,156.6,111.3,156.6,111.3,156.6z"/>
	<path class="st12" d="M111.3,156.4C111.3,156.4,111.3,156.4,111.3,156.4C111.3,156.4,111.3,156.4,111.3,156.4
		C111.3,156.4,111.3,156.4,111.3,156.4z"/>
	<path class="st12" d="M111.1,156.6c-0.1,0-0.1,0-0.2,0c0,0.1,0,0.1,0.1,0.2C111.1,156.7,111.1,156.7,111.1,156.6z"/>
	<path class="st12" d="M111,156.4c0,0,0.1,0,0.1,0C111.1,156.4,111.1,156.4,111,156.4L111,156.4z"/>
	<path class="st12" d="M117.2,158.4c0-0.1,0.1-0.2,0.1-0.3c-0.2-0.1-0.3-0.1-0.5-0.2l0.1,0.4H117.2z"/>
	<path class="st12" d="M108.3,154.9c-0.2,0.1-0.3,0.2-0.5,0.2c0.1,0.1,0.1,0.2,0.2,0.2c0.2,0,0.5,0,0.7,0c0.4,0,0.8,0,1.1,0.1
		C109.4,155.2,108.8,155,108.3,154.9z"/>
	<path class="st12" d="M112,158c0.1,0.1,0.3,0.2,0.5,0.3C112.3,158.2,112.2,158.1,112,158C112,158,112,158,112,158z"/>
	<path class="st12" d="M114.5,158.1c0.1,0.1,0.2,0.1,0.2,0.2c0.1-0.3,0.2-0.6,0.3-0.8c-0.2,0-0.3-0.1-0.5-0.1c0,0.1,0,0.2,0,0.3
		l-0.1,0h0.1v0C114.6,157.8,114.5,157.9,114.5,158.1z"/>
	<path class="st12" d="M113.9,158.6c0.1,0,0.1,0,0.2,0c0.1-0.2,0.2-0.3,0.2-0.5c-0.3-0.2-0.7-0.4-1.2-0.6c0,0.3-0.1,0.6-0.2,1
		c0,0,0,0,0,0C113.2,158.5,113.5,158.6,113.9,158.6z"/>
	<path class="st12" d="M117.7,157.1C117.7,157.2,117.7,157.2,117.7,157.1c0,0.3-0.1,0.6-0.1,0.8c0.4,0.1,0.8,0.3,1.1,0.4h0.8
		c-0.1-0.3-0.1-0.8-0.1-1.3c-0.5-0.3-1.1-0.5-1.9-0.8C117.6,156.5,117.7,156.8,117.7,157.1z"/>
	<path class="st12" d="M112.9,157.2c0-0.1,0-0.2,0-0.3c-0.3-0.1-0.6-0.1-0.9-0.2c0,0.1,0.1,0.1,0.1,0.2c0,0,0,0,0,0
		C112.3,157.1,112.6,157.1,112.9,157.2C112.9,157.2,112.9,157.2,112.9,157.2z"/>
	<path class="st12" d="M114.7,155.3c0.4,0.1,0.8,0.2,1.2,0.3c0.4,0.1,0.8,0.2,1.2,0.4c-0.7-1.2-2.5-2.1-4.8-2.4c0,0,0,0,0,0
		c0,0.1,0,0.2,0,0.2C113.3,154.1,114.2,154.6,114.7,155.3z"/>
	<path class="st12" d="M117.5,157.2C117.5,157.2,117.5,157.2,117.5,157.2c0-0.4-0.1-0.7-0.3-1c-0.4-0.1-0.8-0.3-1.3-0.4
		c-0.4-0.1-0.7-0.2-1.1-0.3c0.1,0.1,0.1,0.3,0.2,0.4c0.9,0.3,1.5,0.8,1.6,1.4c0,0.1,0,0.2,0,0.3c0,0,0,0,0,0l0,0.2
		c0.2,0.1,0.4,0.1,0.6,0.2C117.4,157.7,117.5,157.5,117.5,157.2z"/>
	<path class="st12" d="M111.9,157.5c0-0.1,0-0.2,0-0.3c-0.1,0-0.1,0-0.2,0c0.1,0.2,0.1,0.4,0.1,0.6c0,0,0.1,0,0.1,0
		C111.9,157.6,111.9,157.6,111.9,157.5z"/>
	<path class="st12" d="M111.6,153.6c0.2,0,0.4,0.1,0.6,0.1c0-0.1,0-0.1,0-0.2c0,0,0,0,0,0c-0.1,0-0.3,0-0.5,0
		C111.7,153.5,111.6,153.6,111.6,153.6z"/>
	<path class="st12" d="M114.4,155.2c-0.5-0.5-1.2-1-2.2-1.3c0,0.3-0.1,0.5-0.2,0.8C112.8,154.9,113.6,155,114.4,155.2z"/>
	<path class="st12" d="M111.9,153.3c0.1,0,0.2,0,0.3,0c0-0.1,0-0.1,0-0.2C112,153.2,112,153.2,111.9,153.3z"/>
	<path class="st12" d="M111.9,157.9C111.9,157.9,111.9,157.9,111.9,157.9C111.9,157.9,111.9,157.9,111.9,157.9
		C111.8,157.9,111.8,157.9,111.9,157.9C111.8,157.9,111.9,157.9,111.9,157.9z"/>
	<path class="st12" d="M111,156.3C110.9,156.2,110.9,156.2,111,156.3C110.9,156.2,110.9,156.2,111,156.3
		C110.9,156.3,110.9,156.3,111,156.3z"/>
	<path class="st12" d="M111.3,156.2c-0.1-0.1-0.3-0.2-0.4-0.3c0,0,0,0,0,0c0.1,0.1,0.2,0.2,0.3,0.3
		C111.2,156.2,111.2,156.2,111.3,156.2z"/>
	<path class="st12" d="M112.9,157.4c-0.3-0.1-0.5-0.2-0.8-0.3c0,0.1,0,0.2,0,0.3c0,0.1,0,0.2,0,0.3c0.3,0.1,0.5,0.3,0.7,0.5
		C112.8,158,112.9,157.7,112.9,157.4z"/>
	<path class="st12" d="M108.9,157.1c-0.1,0-0.1,0-0.2,0C108.8,157,108.8,157.1,108.9,157.1C108.9,157.1,108.9,157.1,108.9,157.1z"/>
	<path class="st12" d="M106.3,155.9c-0.1,0-0.2,0-0.3,0c-0.3,0.1-0.5,0.1-0.7,0.2C105.6,156,105.9,156,106.3,155.9z"/>
	<path class="st12" d="M105.2,155.9c0.1,0,0.2-0.1,0.3-0.1c0,0-0.1,0-0.1,0C105.3,155.9,105.3,155.9,105.2,155.9z"/>
	<path class="st12" d="M104,156.5c-0.1,0-0.2,0-0.3,0.1c-0.2,0-0.3,0.1-0.5,0.1c0,0.1-0.1,0.1-0.1,0.2c0.1,0,0.2,0,0.4-0.1
		C103.6,156.7,103.8,156.6,104,156.5z"/>
	<path class="st12" d="M107.5,156.6c-0.5,0-0.9,0-1.4,0c-0.1,0-0.2,0-0.2,0c-0.1,0.2-0.3,0.3-0.4,0.5c0.5-0.2,1.2-0.3,1.8-0.3
		c0,0,0,0,0,0c0.3,0,0.6,0,0.9,0c0.2,0,0.4,0,0.6,0c0-0.1-0.1-0.1-0.1-0.2C108.3,156.6,107.9,156.6,107.5,156.6z"/>
	<path class="st12" d="M107.2,155.5c0.2,0,0.3,0,0.5-0.1c-0.1-0.1-0.1-0.1-0.2-0.2C107.5,155.3,107.4,155.4,107.2,155.5z"/>
	<path class="st12" d="M103,157.2c0.1,0,0.1-0.1,0.2-0.1c0,0-0.1,0-0.1,0C103,157.1,103,157.1,103,157.2z"/>
	<path class="st12" d="M104.4,156.7c0.4-0.1,0.9-0.1,1.3-0.1c0.1-0.2,0.3-0.3,0.5-0.5c-0.5,0.1-0.9,0.2-1.4,0.3
		C104.6,156.4,104.5,156.6,104.4,156.7z"/>
	<path class="st12" d="M107.5,155.8c0.2,0,0.5,0.1,0.7,0.1c0-0.1-0.1-0.1-0.1-0.2C107.9,155.8,107.7,155.8,107.5,155.8z"/>
	<path class="st12" d="M108.7,155.5c-0.2,0-0.4,0-0.6,0c0,0,0.1,0.1,0.1,0.1c0.4,0,0.8-0.1,1.1-0.1
		C109.1,155.5,108.9,155.5,108.7,155.5z"/>
	<path class="st12" d="M106.8,156c-0.1,0-0.1,0-0.2,0c-0.1,0-0.1,0.1-0.2,0.1c-0.1,0.1-0.3,0.3-0.4,0.4c0,0,0.1,0,0.1,0
		c0.5,0,1,0,1.4,0c0.4,0,0.7,0,1.1,0c-0.1-0.1-0.1-0.2-0.2-0.3C107.8,156.1,107.3,156,106.8,156z"/>
	<path class="st12" d="M106.8,155.8c0.1,0,0.1,0,0.2,0c0.3,0,0.7-0.1,1-0.1c0,0-0.1-0.1-0.1-0.1c-0.3,0-0.6,0.1-0.9,0.1
		C106.9,155.7,106.9,155.7,106.8,155.8z"/>
	<path class="st12" d="M107,157.9c-0.1,0-0.2,0-0.3,0C106.8,157.9,106.8,157.9,107,157.9C106.9,157.9,106.9,157.9,107,157.9z"/>
	<path class="st12" d="M107.5,154.8c0.1,0,0.2,0,0.2-0.1c-0.1,0-0.2,0-0.4-0.1C107.4,154.8,107.4,154.8,107.5,154.8z"/>
	<path class="st12" d="M105.7,155.6c0.1,0,0.3,0,0.4,0c0.2-0.1,0.4-0.1,0.7-0.1c0.2-0.2,0.5-0.3,0.7-0.5c0,0,0,0,0,0
		c-0.1,0-0.1,0-0.2,0C106.7,155.2,106.2,155.4,105.7,155.6z"/>
	<path class="st12" d="M117.5,158.2c0,0.1-0.1,0.1-0.1,0.2h0.7L117.5,158.2z"/>
	<path class="st12" d="M114.7,150.7c1.5,0,1.7,0.7,1.7,1.2v0.1c-1.7,0-3.2,0.3-4.1,1c0,0.1,0,0.2,0,0.3c2.4,0.3,4.4,1.3,5.1,2.7
		c0.8,0.3,1.5,0.6,2,0.8c0-0.3,0-0.5,0-0.8v-3.3c0-2.2-1-4.1-4.2-4.1c-1.7,0-3,0.5-3.7,0.8l0.5,1.9
		C112.7,151,113.7,150.7,114.7,150.7z"/>
	<path class="st12" d="M107.4,157.5c-0.2,0-0.4,0-0.7,0c-0.5,0-1,0-1.5,0.1c0,0.1-0.1,0.1-0.1,0.2c0.1,0,0.2,0,0.3,0
		c0.2,0,0.4,0,0.7,0c0.4-0.1,0.8-0.1,1.1-0.1C107.3,157.6,107.4,157.6,107.4,157.5z"/>
	<path class="st12" d="M115,157.3c0-0.1,0-0.2,0-0.3c-0.2-0.2-0.5-0.3-0.8-0.4c0.1,0.2,0.2,0.4,0.2,0.6
		C114.7,157.2,114.9,157.2,115,157.3z"/>
	<path class="st12" d="M116.5,157.5c0-0.1,0-0.1,0-0.2c-0.1-0.5-0.6-0.9-1.4-1.2c0,0,0,0,0,0c0.1,0.3,0.1,0.5,0.1,0.8
		c0.3,0.2,0.5,0.4,0.6,0.6c0.2,0,0.3,0.1,0.5,0.1C116.4,157.6,116.5,157.5,116.5,157.5z"/>
	<path class="st12" d="M111,154.6C111,154.6,111,154.6,111,154.6c0.1,0.1,0.1,0.1,0.2,0.1C111.1,154.6,111.1,154.6,111,154.6z"/>
	<path class="st12" d="M116,158c0-0.1-0.1-0.2-0.2-0.3c-0.2-0.1-0.4-0.1-0.6-0.2c-0.1,0.3-0.2,0.6-0.3,0.9c0,0,0,0,0,0
		C115.3,158.4,115.6,158.2,116,158z"/>
	<path class="st12" d="M115.2,157.1c0,0.1,0,0.2,0,0.2c0.1,0,0.3,0.1,0.4,0.1C115.5,157.3,115.4,157.2,115.2,157.1z"/>
	<path class="st12" d="M112,154.7c0.1-0.3,0.1-0.5,0.2-0.8c-0.2-0.1-0.4-0.1-0.7-0.2c-0.1,0.2-0.3,0.4-0.4,0.6
		c0.1,0,0.2,0.1,0.4,0.1C111.6,154.6,111.8,154.7,112,154.7z"/>
	<path class="st12" d="M110.1,158.1c-0.2-0.1-0.5-0.2-0.7-0.3c0,0.1,0,0.1,0.1,0.2c0.2,0.1,0.4,0.2,0.5,0.3
		C110,158.3,110,158.2,110.1,158.1z"/>
	<path class="st12" d="M109.6,158.4c-0.1,0-0.1-0.1-0.2-0.1c0,0,0,0.1,0,0.1H109.6z"/>
	<path class="st12" d="M109.4,157.4C109.3,157.4,109.3,157.4,109.4,157.4c-0.1,0.2,0,0.2,0,0.3c0.3,0.1,0.6,0.2,0.9,0.3
		c0,0,0,0,0.1-0.1c0,0,0,0,0-0.1c-0.2-0.1-0.4-0.3-0.6-0.4C109.6,157.4,109.5,157.4,109.4,157.4z"/>
	<path class="st12" d="M111.8,155.4c0.1-0.1,0.1-0.3,0.1-0.4c-0.1-0.1-0.2-0.1-0.2-0.2c-0.2,0-0.5,0-0.7-0.1c0,0.2-0.1,0.4-0.1,0.6
		c0.2,0,0.3,0,0.5,0C111.5,155.4,111.6,155.4,111.8,155.4z"/>
	<path class="st12" d="M110.1,158.4h0.3c0,0,0-0.1,0-0.1c0,0-0.1,0-0.1-0.1C110.2,158.3,110.1,158.3,110.1,158.4z"/>
	<path class="st12" d="M111.4,156.1c0.1-0.2,0.2-0.4,0.3-0.6c-0.1,0-0.3,0-0.4,0c-0.2,0-0.3,0-0.5,0c0,0,0,0.1,0,0.1c0,0,0,0,0,0.1
		C111.1,155.9,111.3,156,111.4,156.1z"/>
</g>
<line class="st14" x1="111.8" y1="25.5" x2="111.8" y2="59"/>
<line class="st14" x1="64.1" y1="93.2" x2="97.5" y2="93.1"/>
<line class="st14" x1="185" y1="66.2" x2="148.2" y2="65.8"/>
<line class="st14" x1="142.2" y1="109.1" x2="142.2" y2="145.2"/>
<rect x="106.1" y="102.3" class="st0" width="52.8" height="23.5"/>
<g>
	<path d="M191.6,79.7c-0.1-1-1-1.6-1.9-1.6c-1.4,0-2.3,1.3-2.3,2.8c0,1.5,0.8,2.8,2.3,2.8c1.1,0,1.9-1,2-2.2h0.3
		c-0.1,1.4-1.1,2.5-2.3,2.5c-1.7,0-2.6-1.4-2.6-3.1c0-1.8,1-3.1,2.6-3.1c2,0,2.2,1.9,2.2,1.9H191.6z"/>
	<path d="M203.4,78h0.5l2.2,5.6h0l2.1-5.6h0.5v6h-0.3v-5.6h0l-2.1,5.6h-0.3l-2.1-5.6h0V84h-0.3V78z"/>
	<path d="M211.3,78h0.5l2.2,5.6h0l2.1-5.6h0.5v6h-0.3v-5.6h0l-2.1,5.6h-0.3l-2.1-5.6h0V84h-0.3V78z"/>
	<path d="M227.4,78h0.4l3.5,5.5h0V78h0.3v6h-0.4l-3.5-5.6h0V84h-0.3V78z"/>
	<path d="M237.2,79.7c0-1-0.7-1.5-1.8-1.5c-0.6,0-1.5,0.3-1.5,1.3c0,1,0.9,1.1,1.9,1.3c0.9,0.2,1.9,0.5,1.9,1.7
		c0,1.2-1.1,1.7-1.9,1.7c-1.3,0-2.3-0.6-2.3-2.1h0.3c-0.1,1.3,0.9,1.8,2,1.8c0.7,0,1.6-0.3,1.6-1.4c0-1-0.9-1.2-1.9-1.4
		c-0.9-0.2-1.9-0.5-1.9-1.6c0-1.2,1-1.6,1.9-1.6c1.1,0,2.1,0.5,2.1,1.9H237.2z"/>
</g>
<path class="st15" d="M199.8,84L199.8,84c1.2-0.6,2.1-1.7,2.1-3c0-1.9-1.8-3.5-4.1-3.5c-2.3,0-4.1,1.5-4.1,3.5s1.8,3.5,4.1,3.5
	c0.1,0,0.2,0,0.3,0l0,0c0.3,0.7,1.7,1.2,3,0.9C200.4,85.2,199.8,84.5,199.8,84z"/>
<path class="st16" d="M220,83.9L220,83.9c-1.2-0.6-2.1-1.7-2.1-3c0-1.9,1.8-3.4,4.1-3.4c2.3,0,4.1,1.5,4.1,3.4
	c0,1.9-1.8,3.4-4.1,3.4c-0.1,0-0.2,0-0.3,0l0,0c-0.3,0.7-1.7,1.2-3,0.9C219.5,85.1,220.1,84.4,220,83.9z"/>
<line class="st17" x1="187.4" y1="74.6" x2="237.4" y2="74.6"/>
<g>
	<path d="M187.4,72.7V70h1.9V59.5h-1.9v-2.7h7.3l3.2,9.3l3.2-9.3h7.4v2.7h-1.9V70h1.9v2.7h-7.3V70h1.7V59.5h-0.3l-4.5,13.1h-1.6
		L192,59.5h-0.3V70h1.9v2.7H187.4z"/>
	<path d="M208.8,72.7V70h2.1V59.5h-2.1v-2.7h8v2.7h-2.1V70h4.3v-4.9h2.8v7.6H208.8z"/>
	<path d="M236.5,70v2.7h-7.1V70h1.9l-0.7-2.7h-3.8L226,70h1.9v2.7h-6.4V70h1.8l2.8-10.5h-1.9v-2.7h9.5v2.7h-1.9l3,10.5H236.5z
		 M229.9,65l-1.2-4.8l-1.3,4.8H229.9z"/>
</g>
</svg>
